<svg width="96" height="93" viewBox="0 0 96 93" fill="none" xmlns="http://www.w3.org/2000/svg">
<path d="M41.1046 71.4553C41.1083 71.623 40.6031 70.9283 40.415 70.9788C39.6341 71.1907 38.9088 70.9705 37.8336 71.3984C37.4442 71.5587 36.9459 71.9488 36.4229 72.3823C36.1626 72.5972 35.8949 72.8249 35.6678 72.994C35.5573 73.0747 35.4539 73.1452 35.3965 73.1514C35.3695 73.1522 35.3538 73.1376 35.3717 73.0722C35.3941 72.9976 35.444 72.8959 35.6299 72.5325L37.0636 68.2368C36.954 67.2427 36.4904 65.6593 34.7513 64.2326L33.2422 62.6236C32.5265 62.1232 31.393 61.5658 30.3868 61.3523C29.3719 61.1235 28.5737 61.1644 28.0427 61.265C26.9852 61.4885 26.7376 61.8605 26.5962 62.1772C26.3796 62.8287 26.7014 63.4806 26.9469 64.2911C26.9469 64.2912 26.9469 64.2914 26.947 64.2915C26.9648 64.3461 26.9828 64.4014 27.0008 64.4573C27.3211 65.5242 27.6751 66.7 27.8052 67.9576C27.839 68.5614 28.0805 70.7616 27.8042 72.9355C27.643 74.0129 27.3225 75.1167 26.3973 75.8235C25.5446 76.5601 23.633 76.6099 22.2171 75.7027L20.9935 74.3981C20.8832 74.3144 20.7792 74.2175 20.6848 74.1095C18.9088 72.1048 18.5449 68.6561 19.2536 66.336L20.248 63.3561C20.9043 62.5087 21.2497 62.3137 21.6361 62.0095C22.0127 61.7316 22.3398 61.53 22.6257 61.3569C23.2088 60.9997 23.6338 60.7555 23.7963 60.5539C24.1896 60.0619 24.2334 58.9887 24.7546 58.3438C26.4788 56.2704 27.7966 55.9376 28.978 52.8368C30.4486 53.1887 31.8914 53.6232 33.2732 54.1646C34.3271 53.1191 36.8881 53.8003 37.7348 53.6021C38.4495 53.4107 38.8093 52.5154 39.7003 52.43C40.2085 52.383 40.8762 52.6041 41.624 52.8842C42.5096 53.1754 43.5506 53.5408 44.8661 54.1244C45.4124 54.3708 45.9288 54.6412 46.4091 54.9268C46.9021 55.1386 47.8769 55.7865 48.5823 56.5103C49.3093 57.2371 49.8429 57.9638 50.2608 58.578C51.0832 59.8133 51.5728 60.7728 51.7154 61.7932C51.7365 61.8559 51.7527 61.9206 51.7632 61.9875C51.9712 63.3203 50.5821 65.15 51.0584 66.8914C51.2607 67.1368 51.4607 67.3866 51.6588 67.639C52.2217 67.5886 52.7848 67.5327 53.3481 67.4716C53.4419 68.3897 52.2724 68.5474 52.0815 69.3266C51.8508 70.2437 52.75 70.9852 52.5672 71.6384C52.4154 72.173 51.3906 72.6488 51.2128 73.3487C50.939 74.3796 52.1623 74.5738 52.1644 75.2285C52.2836 75.4208 50.7782 80.2101 50.4352 80.5758C49.1112 82.7241 47.602 81.9258 46.0187 83.4267C45.0861 84.2692 44.0318 85.1651 42.7547 86.0127C42.8623 85.9604 42.7615 86.0495 42.6511 86.1584C42.5332 86.2716 42.3773 86.4195 42.1994 86.587C41.8384 86.9246 41.409 87.3319 40.8117 87.8191C40.1568 88.3124 39.5928 88.8763 37.6783 89.6928C36.5989 89.9956 35.3757 90.9337 31.1315 90.252C29.0208 89.8933 25.9724 88.1749 24.4222 86.0111C22.7945 83.823 22.4217 82.1636 22.1554 80.9143C21.6711 78.8051 21.5805 78.0774 21.458 77.0208C21.2611 75.0872 21.5428 73.285 22.1249 71.5234C25.8962 74.7912 30.2149 69.9269 23.2351 70.6132C24.5976 68.8814 23.2658 66.9212 24.5598 64.7711C25.4607 63.3906 26.6926 62.8498 28.4574 60.6899C28.961 60.0979 29.501 59.4532 30.1168 58.8086C31.5553 56.7245 34.7659 53.6065 36.9139 57.1639C38.4544 56.0467 39.9617 55.8352 41.0451 55.3487C41.9339 54.9135 42.5282 54.1244 42.4304 51.9467C42.9937 51.5324 45.2347 53.552 46.027 53.7068C46.7541 53.8363 52.287 53.7051 53.2805 53.6222C54.2128 53.5045 55.9186 53.2986 56.8721 52.8425C57.8395 52.4374 58.2727 49.4585 61.1913 51.0504C61.4325 51.4431 61.6865 52.1574 61.9217 53.3396C64.2836 53.4359 66.2107 53.7491 69.038 56.8526C69.0399 56.8561 69.0418 56.8596 69.0437 56.8631C69.1971 57.1458 68.7164 57.7354 68.8506 57.857C69.1259 58.1046 69.9794 58.116 70.5391 58.5321C71.4622 59.2195 70.864 60.855 72.4364 58.9811C73.2895 59.2189 74.1578 59.4844 75.0433 59.7916C74.9189 60.334 74.7901 60.8751 74.656 61.4143C75.3369 61.3794 76.0272 61.3624 76.7287 61.3685C73.7579 63.3229 77.467 64.4205 78.3252 62.31C78.9476 64.1883 79.5076 66.1843 79.8482 68.3152C78.0334 69.188 78.4136 70.078 79.4423 70.8122C80.4754 71.5169 82.2023 72.3155 83.1837 71.7884C83.2635 72.0641 83.3388 72.3467 83.408 72.632C83.3476 73.0462 83.3169 73.4456 83.3055 73.838C83.3515 75.3722 83.7833 76.9754 82.2126 80.3382C81.4447 81.9683 79.1635 84.3185 76.3936 84.9229C73.6699 85.5533 71.8197 84.9223 70.6772 84.4742C70.1604 84.2466 69.421 83.8805 68.6413 83.1969C66.3819 81.1096 66.8957 80.7689 67.3984 78.8581C66.8577 78.5501 66.3386 78.2095 65.8472 77.8494C62.8894 78.3962 63.1154 77.103 63.5288 75.8203C63.9222 74.4707 64.4698 73.1351 61.7912 72.029C62.1941 71.5575 62.4493 71.1253 62.5756 70.6902C63.2511 68.8824 61.2108 67.3566 59.8692 66.2249C59.6793 66.0643 59.1092 66.3024 58.8187 66.1049C58.1141 65.618 58.1342 63.6109 56.3199 64.4361C56.6051 63.6228 56.8918 62.8098 57.1806 61.9981C56.6464 61.6532 56.1116 61.3041 55.5773 60.9531C55.0022 61.1903 54.4271 61.4275 53.852 61.6647C55.4139 59.8822 54.0343 58.6261 54.199 57.6449C54.2341 57.4507 55.0198 57.1058 55.0524 56.5356C55.0593 56.4012 55.0408 56.2566 55.0076 56.1072C54.8649 55.4793 54.4486 54.6871 54.4533 54.0294C53.4572 54.0537 52.4577 54.0606 51.4544 54.046C50.5075 52.7685 52.7809 51.5412 52.7579 50.6603C52.7262 50.538 51.9641 47.5913 51.9259 47.3712C51.6283 46.6857 50.9668 46.4779 50.3968 45.8355C49.8703 45.1709 49.2286 44.1285 49.9811 41.1196C50.2864 40.0264 51.2709 39.3247 51.7195 38.3464C52.0043 37.7271 52.354 36.5476 52.9409 35.2254C53.2418 33.8217 53.2977 32.1344 52.6448 31.358C54.9228 31.634 56.6301 28.6736 57.8026 28.3648C58.1449 28.2786 59.0423 29.1209 59.9022 28.6943C60.5818 28.354 61.4895 26.3015 62.4769 25.8032C63.5041 25.2823 64.4321 25.93 64.8972 25.7214C65.3429 25.5248 65.3114 24.5647 65.9616 24.2226C68.0356 23.1591 70.7447 23.6244 73.0904 23.5578C74.066 23.5259 75.0911 23.4081 76.2022 23.3441C77.346 23.4419 78.4022 23.5448 79.9587 24.4155C80.7227 24.8725 81.676 25.5809 82.5343 26.9571C83.406 28.2966 83.9012 30.4529 83.6916 32.1752C84.1444 33.1219 84.5764 34.0608 84.7696 34.9753C84.4742 35.4525 83.8166 35.7955 83.638 36.3203C82.6253 39.0965 81.2344 42.326 77.539 45.406C75.8274 46.7698 72.1934 49.1518 67.3276 48.2922C65.5934 47.9404 65.0433 47.6018 64.4063 47.3265C63.8202 47.0475 63.3415 46.7831 62.9253 46.5417C62.0771 46.0489 61.3785 45.5944 60.717 45.1579C58.8288 43.864 55.9231 38.7658 54.7563 44.4335C53.7832 44.9505 51.139 41.8653 51.1157 41.7923C51.2155 41.794 51.3229 41.7974 51.4231 41.802C52.2146 41.8793 53.9838 41.7498 55.2347 41.1973C56.5061 40.6711 57.222 40.1304 57.658 39.8165C57.9521 39.6014 58.0593 39.5488 58.077 39.5301C58.0979 39.5067 57.9112 39.8053 57.6639 40.2166C57.382 40.6659 57.1488 41.1298 56.3007 42.3436C55.7268 43.0874 55.1111 44.0455 53.2452 45.369C51.6539 46.7729 46.5987 47.8986 43.7316 46.4957C42.4499 45.9885 39.8152 45.1325 37.176 42.313C36.8406 41.9504 36.4977 41.5813 36.1634 41.2086C35.1513 40.3568 34.0044 39.8509 33.7559 39.3097C33.4045 38.5276 34.126 37.292 33.8449 36.3666C33.1186 34.1716 31.6737 30.2224 31.5858 27.8973C31.5657 27.4799 32.5488 27.1986 32.7977 26.592C33.7477 24.2499 33.7633 21.729 30.5145 22.0319C32.4804 18.8665 31.4351 15.3611 33.1432 11.7007C33.2065 11.5687 33.2726 11.4352 33.3416 11.3001C33.6988 10.5867 34.1194 9.77678 34.892 8.58825C35.3001 7.98124 35.746 7.29636 36.7104 6.23365C37.2151 5.69923 37.8274 5.04911 39.0431 4.20726C40.2298 3.43363 42.3718 2.0995 45.9531 2.15045C53.3673 2.83236 55.7001 7.33366 56.7699 10.956C57.7761 15.1789 58.3382 19.3463 59.2685 22.2755C60.1339 25.3864 61.8847 25.2335 59.7455 30.7949C59.2022 32.066 58.5032 33.3465 57.4665 35.03C56.4228 36.7133 54.7663 38.25 53.0271 39.5813C50.9121 41.1107 49.3173 42.068 48.9295 44.4956C46.0381 45.5084 44.2339 46.3558 42.2033 46.0612C41.5469 45.926 40.8571 45.6409 40.1244 45.119C40.102 45.8243 40.0777 46.5289 40.0397 47.2363C39.7141 47.3568 39.3834 47.4758 39.0547 47.5912C38.7692 47.0168 38.4865 46.4412 38.2066 45.8645C35.8845 46.3843 33.2989 49.6124 30.9328 49.8968C28.668 50.1815 23.9534 50.2942 19.1739 48.7652C16.7527 47.7833 13.9187 47.2044 10.3487 43.6245C9.60926 42.8114 8.95077 41.9134 8.46691 41.07C6.63049 37.6047 6.58824 35.6701 8.05412 34.0162C8.29425 33.9588 8.59443 33.8433 8.97503 33.6669C9.07213 32.9156 8.48862 31.2989 11.3722 28.2084C11.7423 27.7013 12.2177 27.1987 12.7605 26.7571C12.7449 26.2448 12.7458 25.7268 12.7624 25.2048C15.3551 23.8509 19.9317 23.5911 23.3765 23.9719C23.6593 23.9944 23.9476 24.0207 24.2427 24.0523C26.7102 24.1125 32.0508 26.17 34.2841 30.1692C35.9702 32.9108 39.0603 36.0347 37.1525 43.5715C36.6126 45.2567 35.0524 47.3051 33.2885 48.4838C32.9078 48.4704 32.1408 48.9259 31.6239 49.3637C29.7336 50.8246 30.0232 53.3796 25.9346 54.4372C25.1104 54.6087 24.1979 54.6872 23.2758 54.656C20.3684 54.17 16.2405 53.1452 10.8634 50.9792C9.05845 50.1131 7.27214 49.7129 5.84425 47.7224C5.09578 46.6378 4.57468 45.4004 4.29309 44.2628C3.56225 41.4638 3.24637 38.1776 5.07371 33.9784C5.22651 33.4054 5.34277 32.8327 5.41864 32.2232C8.5345 31.1165 10.5067 32.8688 13.0463 33.7749C14.9454 34.4761 19.6397 35.867 20.7402 37.2594C21.5981 38.1131 22.8561 39.0393 23.852 39.9207C23.8983 41.5782 22.1189 42.0858 19.7235 42.4177C19.6929 42.4716 19.6627 42.5252 19.6339 42.577C19.9806 42.0157 20.0982 41.4946 20.1333 41.2207C20.1673 40.9331 20.1553 40.8558 20.1557 40.7875C19.9525 39.4211 18.6238 37.8589 17.9814 37.523C17.3097 37.0985 17.2036 37.1447 17.3212 37.1444C17.5899 37.1905 18.57 37.2617 19.6028 37.2473C19.8823 37.9782 20.1928 38.7059 20.5204 39.4307C20.5204 39.4323 20.5204 39.4339 20.5204 39.4355C21.6311 40.097 22.2554 39.0214 22.8444 38.337C22.8367 38.1673 22.8106 38.0231 22.7763 37.9403C22.6417 37.594 22.2472 37.3699 21.8594 37.2964C21.6688 37.255 21.4867 37.245 21.3673 37.2115C21.3082 37.1936 21.2636 37.1705 21.2546 37.1163C21.2531 37.055 21.2525 36.9952 21.4565 36.7312C20.3631 37.5922 19.6698 39.2035 19.5559 39.9686C19.4061 40.7809 19.4602 40.9886 19.4035 40.9556C19.318 40.8538 18.9716 39.9593 18.4855 39.0065C18.8154 39.5858 19.5665 40.3872 20.3596 40.8054C21.1481 41.2406 21.7966 41.3049 21.9783 41.2768C21.9024 41.0888 21.5024 40.7656 20.1495 41.1822C22.8673 39.6889 23.4613 37.6451 23.6567 37.0689C23.851 36.3695 23.8005 36.234 23.7546 36.4237C23.8785 35.5888 23.629 33.8166 22.8849 32.7327C22.2912 31.7958 21.6471 31.3487 21.3407 31.1746C21.0159 30.9959 20.9236 31.0111 20.9347 31.0468C20.9694 31.1345 21.3627 31.3253 21.7794 31.4699C22.0107 31.5513 22.3863 31.6228 22.8821 31.6911C24.2041 31.8924 27.1353 31.3226 28.0608 32.1305C28.3511 32.4055 28.5682 33.5071 28.8662 33.5155C31.3622 32.4944 33.8156 31.1465 36.1147 29.625C36.1739 29.6229 36.2328 29.6205 36.2916 29.6177C38.3346 29.6362 40.2515 28.6817 40.3295 28.3793C40.3579 28.608 40.6434 25.2801 40.1601 22.3586C39.8981 20.1297 39.3661 17.6333 38.7122 15.4889C39.3437 17.5378 40.5072 20.313 45.4473 20.8288C47.5199 20.8742 48.8084 20.1526 49.43 19.7798C50.0831 19.3655 50.3169 19.1166 50.4825 18.9653C50.7796 18.6705 50.7361 18.7107 50.6891 18.8199C50.5631 19.0638 50.2729 19.6312 49.9816 20.245C49.0923 21.5041 50.322 28.5233 52.209 31.2349C51.8606 30.6361 51.2781 30.0457 50.8549 29.7482C50.4282 29.4398 50.2023 29.3683 50.3296 29.4062C49.3213 28.9962 47.7269 28.7137 46.2454 28.9433C44.7573 29.1552 43.6222 29.7388 42.9305 30.2019C41.5518 31.1732 41.3186 31.6896 41.0934 31.963C40.8818 32.2766 40.9397 32.2028 40.9997 32.0762C41.0697 31.9386 41.1857 31.7043 41.3333 31.4121C41.667 30.7959 41.935 30.0911 43.0646 28.5626C43.8503 27.5484 45.1497 26.1452 47.3007 25.1562C49.4482 24.1406 51.8857 24.0919 53.1635 24.2683C57.1281 24.7989 59.6137 25.9285 62.0196 26.9863C63.7998 27.8006 65.747 28.5637 67.5046 29.318C68.3806 29.6929 69.2168 30.0677 69.8968 30.4022C70.2394 30.5708 70.5358 30.7253 70.7541 30.8547C70.9589 30.9807 71.1174 31.0819 70.9142 31.0841C70.7963 31.0841 70.5667 31.0787 70.061 31.0864C67.8364 31.3149 67.2726 33.0397 66.3846 32.2836C66.6746 32.6718 66.9679 33.0575 67.2643 33.4408C67.2356 33.3988 67.2116 33.3482 67.1913 33.2898C66.7962 32.8175 66.1229 32.2374 66.2773 31.7119C66.3884 31.3929 66.7939 30.1056 66.9761 29.2392C66.5657 31.2241 67.2197 33.7494 68.0843 35.0305C68.9388 36.3808 69.7139 36.9552 70.2717 37.3587C71.3952 38.1077 71.9763 38.2274 72.519 38.3698C72.6367 38.3968 72.7475 38.416 72.8526 38.4291C73.2865 38.3413 73.2765 37.5204 73.5364 37.5443C74.0398 37.5747 74.256 38.658 73.6773 39.0002C73.2379 39.2135 71.3622 39.3016 70.8586 39.9561C69.546 41.6174 68.4389 44.2718 67.3526 46.1408C67.9111 45.5569 68.1179 44.9003 68.0506 44.6925C68.0171 44.555 67.6841 44.5281 67.3783 44.6423C67.0713 44.7483 66.7954 44.9521 66.8171 45.021C66.9076 45.3111 68.0552 45.28 68.2288 45.4607C68.9974 46.2666 68.6277 48.812 69.1427 50.7859C69.1864 50.9641 69.2409 51.1477 69.2986 51.3111C70.8938 55.7572 73.1608 60.5827 75.2221 65.1582C75.86 66.5925 76.5732 67.5298 76.6229 67.6187C76.6443 67.6605 76.6111 67.6504 76.6395 67.6794C76.6768 67.7107 76.7848 67.7864 77.4062 68.047C76.5403 67.724 75.0405 67.1388 72.4953 67.609C69.9054 68.0266 67.3771 70.2887 66.6038 71.8771C65.0073 75.1348 65.5961 76.2354 65.6651 77.2016C65.8275 76.9881 64.5581 74.6426 63.4837 72.8508C63.1177 72.1984 64.1456 71.4652 63.6831 70.9995C63.1595 70.4793 62.2746 70.8053 61.9719 70.6125C61.1779 70.1071 59.996 69.3518 58.6556 68.3831C59.1237 68.9507 59.7817 69.2627 59.679 69.265C59.6175 69.2848 59.0378 69.1745 58.3802 69.0335C58.9376 69.087 58.9014 69.013 58.847 68.9653C58.7728 68.9109 58.6116 68.8468 58.4433 68.7677C58.157 68.629 57.7642 67.6939 57.5387 67.7299C57.4233 67.7466 57.2702 68.444 56.9047 68.5755C53.587 69.7865 50.5524 70.1857 46.654 70.9604C46.1965 71.0531 45.7341 71.1543 45.2658 71.2632C44.4026 71.4533 43.6406 71.7091 43.1779 71.9422C42.6706 72.2152 42.7199 72.2019 42.0235 72.8403C42.4061 72.5532 42.3606 72.5548 42.2708 72.8654C42.1735 73.1677 42.0256 73.715 41.9153 74.3499C41.8023 74.9854 41.7159 75.7188 41.6663 76.4304C41.6413 76.7841 41.6256 77.1366 41.6188 77.4298C41.6153 77.5783 41.6144 77.7067 41.6129 77.7881C41.6078 77.8527 41.6203 77.9334 41.5657 77.6397C41.3946 76.7747 41.0582 75.131 39.3027 73.351C37.5155 71.5424 35.0491 71.04 33.9281 71.0511C31.6059 71.1057 31.3978 71.5003 31.0625 71.5903C30.5949 71.8362 30.8523 71.7685 31.0777 71.6571C31.553 71.4309 32.3148 71.4199 33.4852 71.2256C33.6822 71.737 34.1348 72.0821 34.1416 72.0583C34.218 71.9311 33.3199 71.0032 33.2474 70.5611C33.1347 69.174 35.6711 65.6634 35.3052 62.7518C35.2415 62.159 34.9347 61.4524 34.5617 60.7667C34.3801 61.0421 34.0627 61.6918 34.3818 63.3003C34.5921 64.9112 36.4384 67.1108 36.4685 67.2106C37.2614 68.0431 38.0568 68.5264 38.6652 68.8025C39.1303 69.0142 39.647 69.1396 40.0547 69.1815C40.4009 69.2257 40.6209 69.1097 40.6134 69.1056C40.6191 69.0976 40.4842 69.2073 40.5388 69.5039C40.6075 69.9455 41.1006 71.2652 41.1046 71.4553ZM31.2179 59.5237C31.8152 60.4942 32.4479 60.0752 32.907 59.3202C33.348 58.5773 33.5768 57.5215 32.4988 57.5112C31.963 57.5224 30.8452 59.0564 31.2179 59.5237ZM75.2248 42.5762C75.676 43.0364 76.1317 43.4924 76.5919 43.9442C76.9107 43.3057 77.1506 42.676 77.3294 42.0658C76.8247 42.0552 76.324 42.0236 75.8312 41.9681C75.6397 42.174 75.4379 42.3771 75.2248 42.5762Z" fill="#FFB8E7"/>
<path d="M50.8656 59.0011C50.7413 59.094 50.5281 58.6519 50.376 58.6386C49.732 58.5792 49.4739 58.2827 48.8633 58.1511C48.5886 58.0925 48.161 58.1266 47.6034 58.1138L47.6793 58.1085C46.9507 58.0341 45.896 57.8684 45.4387 55.6948C45.4386 55.6948 45.4386 55.6947 45.4386 55.6946C45.4329 55.6641 45.4274 55.6332 45.422 55.6018C45.3201 55.0071 45.4101 54.321 45.3235 53.6436C45.2372 52.9661 44.4214 48.6348 44.746 48.3278C45.186 47.9237 46.6693 48.7802 46.9683 48.812L47.0125 48.8089C47.0244 48.81 47.0349 48.8093 47.044 48.8066C47.1939 48.7624 47.3569 48.3491 47.5594 48.2622C48.2201 47.9809 48.6247 48.2412 49.192 47.1086C49.495 47.6612 49.7957 48.2147 50.0911 48.7692C50.4105 48.4807 50.967 49.2028 51.168 49.1489C51.3309 49.1045 51.4039 48.6459 51.5752 48.6146C51.7733 48.5766 52.0937 49.0481 52.4477 48.9547C53.0185 48.8047 53.0642 47.6184 53.4015 47.4506C53.7558 47.2768 54.3523 47.8913 54.7895 47.4545C54.8416 47.3219 54.8943 47.1892 54.9473 47.0565C54.8916 46.7645 54.8359 46.4725 54.7804 46.1805C55.0115 46.0328 55.1306 46.631 55.3486 46.6322C55.3771 46.6324 55.4038 46.6254 55.429 46.6128L56.0453 46.6227C56.352 46.5551 56.5813 46.127 56.7993 46.1556C57.0089 46.1838 57.198 46.6733 57.4404 46.6836C57.7859 46.7008 57.8308 46.0381 58.0376 45.9495C58.1303 45.9084 59.5171 45.835 59.5803 45.8528C60.1287 45.9613 59.9388 46.8501 60.3184 47.0352C61.3649 47.5476 62.649 47.1997 63.7021 47.2807C64.172 47.3165 64.5915 47.5278 64.9572 47.8226C63.4957 49.7464 64.242 51.9651 65.0286 48.3803C65.2974 49.038 65.9764 48.2544 66.3424 48.5825C66.5808 48.7969 66.5731 49.3378 66.9665 49.4897C67.6591 49.753 68.9903 48.7811 68.1256 51.2266C69.1007 51.1653 69.363 52.3271 70.6282 50.4025C70.8914 50.373 70.8174 51.8468 70.9548 52.1204C71.0454 52.292 71.653 52.9341 72.12 53.4045C72.3622 53.6471 72.5701 53.8446 72.654 53.9017C72.9007 54.0689 73.3462 54.35 73.6687 54.2996C74.0605 54.2332 75.4602 52.3022 74.5863 54.9967C75.2938 55.1567 75.4771 55.3639 75.8516 55.9954C75.9195 56.1105 75.7011 56.4588 75.758 56.4976C75.8752 56.5769 76.2489 56.4651 76.4833 56.5877C76.8709 56.7915 76.5407 57.6304 77.3018 56.5499C77.6684 56.5505 78.0402 56.5622 78.4163 56.5857C78.3366 56.8502 78.254 57.1134 78.1677 57.3745C78.4677 57.2652 78.7721 57.1619 79.0797 57.0641C77.6735 58.3629 79.2394 58.2749 79.7304 57.2354C79.9023 57.94 80.0329 58.6415 80.1212 59.3318C78.4585 60.7165 80.7166 60.4112 81.5835 59.6178C81.6144 59.6582 81.6451 59.6988 81.6758 59.7396C81.6844 59.751 81.6929 59.7624 81.7014 59.7739C81.5585 60.5234 82.2158 60.6004 82.2732 61.3203C82.3282 62.0396 82.1219 62.1197 81.4259 62.8579C81.5548 62.9369 81.683 63.0157 81.8118 63.096C84.4728 62.1107 80.5306 64.7322 82.9655 64.5743C81.7667 65.8706 83.047 66.1738 83.8431 66.4745C83.9355 66.5088 84.2207 66.3349 84.3631 66.3704C84.7095 66.4591 84.6739 67.2426 85.5923 66.6809C85.4398 67.038 85.2851 67.395 85.1244 67.7457C85.3869 67.8132 85.6503 67.8852 85.9131 67.9593C86.2084 67.7985 86.5037 67.6376 86.799 67.4767C85.9788 68.3664 86.6469 68.7033 86.5363 69.1026C86.5131 69.1818 86.1031 69.3983 86.0698 69.621C86.028 69.8797 86.3253 70.1955 86.2969 70.4938C86.8083 70.3803 87.3232 70.2768 87.8393 70.1779C88.2936 70.5408 87.0993 71.2186 87.0994 71.5189C87.1054 71.5691 87.5131 72.4702 87.551 72.5206C87.8891 72.9068 89.0118 72.4004 89.0666 73.9997C89.07 74.2974 88.7035 74.5796 88.713 74.8477C88.7666 75.2408 89.6037 76.9901 90.3364 77.4311C89.9768 77.6482 89.715 78.029 89.4643 78.4651C89.1021 78.7973 89.0536 79.4055 88.7771 79.557C88.6561 79.6212 88.0195 79.4222 87.7824 79.6608C87.594 79.8476 87.8482 80.6716 87.6154 80.9715C87.3716 81.2818 86.8025 81.165 86.6933 81.2982C86.5896 81.4244 86.9238 81.7669 86.8079 81.9744C86.4344 82.6254 85.433 82.8015 85.044 83.2509C84.4914 83.8921 84.7752 85.4617 84.2907 86.5193C84.0439 86.5826 83.6979 86.4614 83.4922 86.5793C83.0494 86.8312 82.5802 87.0461 82.1033 87.2183C80.7156 87.6824 79.1878 88.0042 77.762 88.1921C76.9514 88.3183 74.5885 87.0347 75.8267 89.8539C75.6721 90.4586 73.2517 89.7034 72.81 89.7182C72.3776 89.7588 72.0685 90.3389 71.6863 90.3765C70.9949 90.4411 70.3846 90.3251 69.611 90.268C69.4494 90.2507 69.1744 90.2926 68.7592 90.4733C68.4955 90.5907 68.1496 91.2256 67.9603 91.21C67.7325 91.1899 67.5135 90.5545 67.2038 90.4926C66.483 90.3672 64.8821 90.3439 64.0576 89.9915C63.9108 89.93 64.0043 89.3878 63.8459 89.1621C63.239 88.29 62.4152 87.9736 61.8432 89.6347C61.1792 88.2549 59.8562 88.4997 58.9285 87.8602C58.3944 87.4893 57.8052 86.9603 57.2542 86.3654C56.3694 85.3984 55.2568 84.1366 54.1856 83.7024C53.2483 83.3202 52.6364 83.8368 52.2881 82.2858C52.2139 81.9405 52.1861 81.5632 52.1079 81.1434C51.9124 80.1372 52.7341 78.7205 50.8837 79.0149C50.7719 77.9226 50.1213 77.3402 51.1728 76.0659C50.8139 76.1442 50.4538 76.2193 50.0926 76.2912C50.035 76.1869 49.9769 76.0795 49.9218 75.9772C50.2192 75.8051 50.5172 75.634 50.8158 75.4639C50.5738 74.6927 48.8923 74.2337 48.6695 73.5627C48.4785 73.0002 48.2902 71.9619 48.2127 70.9473C48.1631 70.0576 48.1705 69.1717 48.2649 68.6683C48.3645 68.1202 47.6534 68.2949 49.0246 67.6147C48.8943 67.5385 48.7628 67.4578 48.6318 67.3787C48.2957 67.4008 47.9597 67.423 47.6238 67.4454C47.4392 66.8393 47.7279 65.9766 47.5569 65.3875C47.2474 64.3258 45.9268 62.9731 46.2022 61.7454C46.2701 61.4303 46.8327 60.919 46.7516 60.6568C46.633 60.271 45.5249 60.4941 45.367 60.0058C45.101 59.1784 45.9306 57.2705 45.6156 56.5067C45.5248 56.2873 45.0872 56.2787 45 56.1313C44.6266 55.502 44.5055 54.9341 43.7016 54.4553C44.5494 53.4633 45.9099 53.1513 47.2098 52.5711C48.1874 52.1202 50.424 50.9687 51.3027 50.6552C51.9192 50.4323 52.783 50.405 53.4561 50.1395C54.2362 50.8155 53.7227 51.3328 52.9346 52.283C53.3183 53.5254 53.7028 54.7639 54.0893 56.0054C53.7423 56.2233 53.3958 56.4427 53.0497 56.6637C53.0489 56.664 53.0481 56.6642 53.0472 56.6644C52.7428 57.2613 53.7773 57.2072 54.0683 57.3968C56.8748 59.2893 56.5882 64.632 57.1252 67.4348C57.1629 67.6316 57.3022 67.9554 57.4559 68.3277C57.7437 69.0068 58.1053 69.7971 57.7839 70.1705C57.6583 70.3154 57.0956 70.5406 57.1054 70.6477C57.7561 71.4094 58.4317 72.1027 59.1294 72.708C59.0674 74.734 60.7719 75.8162 62.134 77.116C62.8762 77.8361 63.6992 78.5722 64.5562 79.35C66.1372 80.4688 66.3953 80.3578 70.2568 80.3841C70.7942 80.3959 72.0606 80.2242 73.2566 79.9683C74.1662 79.7834 75.2097 78.9973 76.2108 78.9619C76.6272 78.947 77.1211 79.8046 77.3771 78.9384C77.4733 79.1821 77.5695 79.4258 77.6659 79.6694C77.9978 79.2133 78.0654 78.5622 78.5063 78.3045C78.5073 78.3029 78.5082 78.3015 78.5092 78.3001C78.5874 78.2127 78.5952 78.158 78.7208 78.1738C78.7804 78.1837 79.1302 78.5268 79.1669 78.4816C79.2381 78.3899 78.8224 77.8084 78.9213 77.6147C79.0105 77.4583 79.7214 77.2364 79.7384 76.9522C79.7632 76.517 79.6844 75.9789 79.6566 75.3801C79.276 75.8061 79.1688 75.8709 79.2427 75.6236C79.2919 75.5171 79.8479 75.118 79.8109 75.0541C79.7404 74.9371 79.1366 75.0716 79.0366 75.0163C78.5406 74.7451 78.8962 73.6837 78.6493 73.1159C77.8809 71.3076 76.3843 69.4734 75.1864 67.6407C74.858 67.1379 74.3896 66.5207 73.9202 65.8903C73.4399 65.2291 72.9397 64.62 72.6743 64.0428C72.574 63.8243 73.0541 63.3461 72.9023 63.2201C72.7313 63.0802 72.3558 63.3668 72.2551 63.3357C71.5644 63.1051 69.9745 62.6577 69.5054 61.8826C69.4208 61.7339 69.579 61.2178 69.498 61.1763C69.4575 61.1545 69.1973 61.4245 69.0531 61.3898C68.736 61.3138 68.4481 61.2187 68.176 61.1067C67.3571 60.7701 66.7242 60.2984 65.8944 59.8023C63.7697 58.5359 60.9004 58.0572 58.7266 56.9918C58.2541 56.7596 58.205 55.6592 58.1254 55.6475C57.9615 55.6235 57.6731 56.2731 57.3296 56.3636C56.5668 56.5622 55.8072 56.1903 55.3205 56.0825L55.8493 56.091C55.393 56.0756 54.9762 56.0927 54.5994 56.226C54.0376 56.427 53.3062 57.3597 52.7635 57.5883C52.3304 57.77 51.2724 57.4839 51.1049 57.8889C51.0016 58.1333 50.998 58.8966 50.8656 59.0011ZM67.1458 50.2051C66.5868 51.2887 67.8135 50.7197 67.7658 49.9859C67.7531 49.8195 67.2923 49.9239 67.1458 50.2051ZM80.0861 85.7574C80.2156 86.0802 80.3453 86.4029 80.4751 86.7256C80.5374 86.5478 80.5972 86.3704 80.6579 86.1923C80.5205 86.0211 80.3833 85.8496 80.2479 85.6773C80.1942 85.704 80.1402 85.7307 80.0861 85.7574Z" fill="#E582C3"/>
<path d="M51.5836 53.1876C51.5109 53.3943 50.9845 53.2911 50.8176 53.4298C50.2624 53.8843 49.9082 53.9314 49.7579 53.843L48.3052 55.0054C48.1295 55.0496 47.9441 55.0997 47.7395 55.1633C47.093 55.3727 45.986 55.9452 44.9756 56.0435L44.8342 56.091C44.5335 56.1271 43.4925 56.34 42.5171 56.2072C41.53 56.0904 40.7571 55.718 40.3186 55.3484C39.4382 54.5841 39.497 53.8622 39.9162 53.1633C39.9163 53.1632 39.9163 53.1631 39.9163 53.1631C39.9327 53.1367 39.9497 53.1102 39.9673 53.0838C40.3089 52.5907 41.0002 52.2224 41.3319 51.6188C41.6232 51.0128 43.7339 47.0885 43.2414 46.6616C43.0831 46.5348 42.7175 46.4721 42.3437 46.5475C41.9711 46.6179 41.7114 46.8212 41.8695 46.8868L41.7724 46.9195C42.1347 47.0484 42.4981 47.2159 42.578 47.1542C42.6842 47.0727 42.6613 46.6456 42.7601 46.5202C42.9237 46.3139 43.0773 46.2515 43.1636 46.0909L42.1883 46.8713C42.401 46.5041 42.4699 46.1602 42.2755 45.5949C42.8298 45.8504 43.3666 46.1197 43.9235 46.3599C43.8956 45.9987 44.7277 46.1817 44.804 46.0178C44.8659 45.8851 44.5551 45.5465 44.6263 45.4186C44.6989 45.2802 45.247 45.3641 45.3657 45.068C45.5639 44.5782 44.6292 43.8431 44.6681 43.5121C44.7044 43.1745 45.5184 43.0904 45.3768 42.5211C45.2925 42.4093 45.2082 42.2973 45.1239 42.1852C44.8526 42.0654 44.5817 41.9447 44.3113 41.823C44.3006 41.5763 44.8614 41.8134 44.9677 41.6557C45.0945 41.4671 44.659 41.0788 44.7352 40.9526C44.7977 40.8503 45.2848 40.9227 45.3376 40.7717C45.4188 40.5486 44.8175 40.2669 44.772 40.0954C44.7587 40.0242 44.8939 39.023 44.9102 38.9787C45.0779 38.6141 45.8995 38.9982 46.1202 38.7522C46.7414 38.043 46.5274 36.8524 46.658 35.9705C46.7241 35.5607 46.9386 35.2448 47.2425 34.953C48.2256 35.8051 49.3271 36.0714 49.5777 35.9461C49.7896 35.8395 49.3903 35.4656 47.7931 34.9531C48.4528 34.7774 47.7023 34.0805 48.0346 33.7735C48.2479 33.5803 48.7811 33.6328 48.9361 33.2794C49.2053 32.6574 48.2292 31.3773 50.6488 32.3059C50.5766 31.3913 51.7127 31.1677 49.7591 29.9543C49.716 29.7149 51.1673 29.8077 51.4269 29.6804C51.6789 29.5527 52.8933 28.3151 53.0232 28.0838C53.1591 27.8513 53.3681 27.4422 53.2614 27.1701C53.1377 26.8123 50.9929 25.8062 53.7433 26.3541C53.7229 25.766 53.8565 25.6251 54.3092 25.2715C54.3904 25.2082 54.7849 25.3224 54.8002 25.2748C54.8322 25.1716 54.5914 24.9192 54.6011 24.745C54.6167 24.4611 55.4897 24.5134 54.199 24.237C54.0223 24.0232 53.8351 23.8344 53.6393 23.6676C53.898 23.6672 54.1574 23.6592 54.4165 23.6482C54.1529 23.5324 53.8856 23.4309 53.6159 23.3415C54.1227 23.4149 54.4166 23.4302 54.5546 23.4045C54.9347 23.3152 54.1376 22.9422 53.3268 23.0436C53.7417 22.7664 54.1461 22.4212 54.5367 22.0438C56.7136 22.0671 54.7599 21.1721 53.5821 21.3439C53.5815 21.3033 53.5807 21.2623 53.5798 21.2209C54.1313 20.8163 53.6307 20.5185 53.9569 20.0239C54.2782 19.5149 54.49 19.5279 55.453 19.2206C55.3774 19.1126 55.3018 19.0108 55.2247 18.9058C52.4268 18.862 57.0981 17.974 54.7949 17.4295C56.375 16.6602 55.2443 16.0421 54.5674 15.7301C54.4887 15.6917 54.1752 15.8067 54.05 15.7663C53.7506 15.6674 53.9535 15.033 52.9677 15.4709C53.1902 15.1969 53.4048 14.9107 53.615 14.6219C53.3772 14.5735 53.1383 14.5273 52.9018 14.4901C52.6002 14.639 52.2987 14.7878 51.9971 14.9366C52.9087 14.1895 52.3062 13.9943 52.4411 13.6791C52.4683 13.6145 52.8679 13.378 52.9076 13.1939C52.955 12.9753 52.6821 12.7891 52.699 12.5465C52.2244 12.7577 51.7539 12.9763 51.2863 13.2001C51.1349 13.1588 51.1885 13.0171 51.3113 12.8398C51.4968 12.5113 51.8936 12.1031 51.8647 11.9435C51.8527 11.8918 51.3466 11.329 51.3026 11.3194C50.9332 11.1984 50.0357 11.9106 49.7517 11.128C49.7024 10.9914 49.9455 10.6549 49.879 10.5483C49.7521 10.3396 48.6845 10.5162 48.0819 11.1052C48.6961 10.2259 48.0715 10.2503 48.1947 9.97501C48.2259 9.88302 48.6096 9.3343 48.5935 9.1528C48.5693 8.99647 48.1443 9.37251 48.1377 9.2746C48.1192 9.15963 48.2896 8.62496 48.2605 8.57258C48.2324 8.52392 48.0669 8.94686 48.0358 8.93586C47.9537 8.897 47.9211 8.21729 47.7535 8.14348C47.7392 8.14006 47.7251 8.13791 47.711 8.13716C47.2328 8.11111 46.8638 9.46941 46.5685 10.0881C46.476 10.0077 46.3654 9.72789 46.2711 9.73387C45.1155 9.79295 43.7536 9.8313 42.6729 9.94849C42.1869 9.95949 40.338 8.95972 42.2233 11.3693C42.3717 11.7185 41.9779 11.406 41.9419 10.9086C41.6949 11.0438 41.5047 11.1499 41.4502 11.2197C41.2493 11.4778 41.5656 11.9814 41.4449 12.1776C41.093 12.7549 40.5093 12.9482 40.5938 13.8055C40.6182 14.0271 41.1177 14.4762 41.0715 14.5573C41.0131 14.6567 40.3907 14.5179 40.291 14.6509C40.053 14.9682 40.0242 15.6835 39.8353 15.9937C39.7986 16.0497 39.2626 15.9326 39.0721 15.9882C38.3255 16.2076 38.2991 16.702 40.0379 16.9172C38.9776 17.2099 39.8244 17.7993 39.8587 18.2231C39.891 19.1184 39.6664 21.0585 40.593 21.8435C41.0316 22.221 41.581 22.1768 41.6061 22.5929C41.6208 22.7456 41.5902 22.9511 41.4989 23.239C41.4093 23.5031 41.2741 23.7995 41.1702 24.1232C40.9303 24.9027 39.6823 25.8782 41.5082 25.9685C41.2622 26.8362 41.7281 27.3548 40.4282 28.2936C40.7924 28.2705 41.1565 28.2469 41.5203 28.2223C41.5528 28.3123 41.5855 28.4026 41.6182 28.4932C41.2951 28.6083 40.9719 28.7234 40.6488 28.8386C40.7333 29.5286 42.3137 30.0181 42.4521 30.5834C42.6847 31.5318 42.8053 34.109 42.6009 35.1262C42.4921 35.6668 43.2059 35.5029 41.8258 36.165C41.9554 36.2441 42.0854 36.3246 42.2151 36.4042C42.5512 36.3856 42.8873 36.367 43.2233 36.3482C43.4 36.9555 43.1018 37.8162 43.2637 38.396C43.5611 39.4584 44.8663 40.81 44.5827 42.0374C44.5102 42.3434 43.9459 42.8576 44.0243 43.1167C44.1372 43.4919 45.2514 43.2928 45.4033 43.7708C45.5264 44.1614 45.4021 44.8036 45.2686 45.4394C45.124 46.1466 44.9713 46.8578 45.1348 47.2587C45.2242 47.4764 45.6625 47.4896 45.7479 47.6326C46.1191 48.2636 46.2374 48.8283 47.04 49.3087C46.1878 50.2909 44.826 50.5972 43.5272 51.183C42.5467 51.6241 40.3097 52.7761 39.4312 53.0901C38.8143 53.3114 37.9527 53.3467 37.2776 53.6051C36.4963 52.9222 37.0094 52.3998 37.801 51.4557C37.4274 50.2348 37.0515 49.0054 36.6765 47.779C36.6706 47.76 36.6648 47.7409 36.6589 47.7217C37.0073 47.5069 37.3551 47.2899 37.7024 47.0708C37.7032 47.0705 37.704 47.0703 37.7049 47.0701C38.0114 46.4713 36.9782 46.5252 36.6873 46.3304C33.8858 44.4088 34.2172 39.051 33.7237 36.2317C33.616 35.6252 32.5922 33.8279 33.1016 33.2568C33.2343 33.1087 33.812 32.9251 33.808 32.8063C33.1957 31.8948 32.5846 30.981 31.9753 30.0633C32.2602 28.303 31.5773 26.7599 30.9485 25.1833C30.7359 24.6241 30.5436 24.0634 30.4032 23.49C28.6193 17.817 30.3167 9.59573 33.9432 5.32836C34.771 4.16549 35.6418 3.48711 36.4341 2.95504C37.9793 1.92966 39.615 0.84147 41.0621 0.734002C41.668 0.691465 42.1105 1.57899 42.6715 0.71647C42.7331 0.971192 42.7944 1.22596 42.8554 1.48081C43.3983 1.04655 43.7027 0.387209 44.4121 0.229371C45.0039 0.0857119 46.6134 -0.070834 47.1616 0.0344433C47.4441 0.0807177 47.3432 0.571049 47.6006 0.568255C47.6746 0.567104 47.7627 0.547559 47.8617 0.516379C48.553 0.350122 49.774 0.0464264 50.543 0.280441C51.4076 0.50749 52.3892 1.60536 52.8857 1.83123C54.7858 2.62968 56.7785 3.57403 57.6236 5.03053C57.8593 5.43645 57.667 6.25423 57.7546 6.34686C57.9318 6.53145 58.478 6.23715 58.6396 6.32974C59.0039 6.53898 59.2222 6.94321 59.366 7.34821C59.6421 7.99279 59.8019 8.69622 60.0461 9.15407C61.484 11.8202 62.7907 14.7873 63.1743 17.7406C63.4294 19.494 63.708 22.297 63.1197 24.2469C63.0832 24.3786 63.0428 24.5099 63.0004 24.6276C62.8398 25.0671 62.1891 24.8421 62.1308 25.189C62.063 25.5687 62.4638 25.8604 62.4601 26.045C62.4548 27.3492 62.0757 29.7186 61.2889 30.394C61.1392 30.526 60.6016 30.4425 60.5628 30.542C60.542 30.5928 60.8305 30.8408 60.8008 31.0081C60.5318 32.495 59.9103 33.3595 59.2147 34.5756C58.354 36.0779 57.7551 37.8562 57.0103 39.569C56.5964 40.5184 56.1391 41.4346 55.5716 42.2571C55.2147 42.7774 54.0947 42.6556 54.0623 42.7397C53.9908 42.9201 54.5638 43.3433 54.5284 43.777C54.4182 45.195 52.8996 46.3503 52.5063 47.6343C52.3175 48.2654 52.5615 49.5193 52.3088 50.2093C52.1224 50.7605 50.9711 51.6482 51.0713 52.1152C51.1425 52.395 51.6554 52.9651 51.5836 53.1876ZM49.6408 33.1684C50.7062 33.7628 50.1529 32.572 49.4281 32.574C49.2658 32.573 49.3652 33.0123 49.6408 33.1684ZM44.3186 7.86676C44.3937 8.20634 44.4684 8.54601 44.5426 8.88576C44.6017 8.7264 44.6641 8.56719 44.7287 8.40843C44.6404 8.212 44.5506 8.0161 44.4581 7.82099C44.4114 7.83607 44.3649 7.85132 44.3186 7.86676Z" fill="#E582C3"/>
<path d="M38.4861 45.4194C38.5707 45.3125 38.8391 45.7162 38.9949 45.7028C39.5739 45.6568 39.994 45.8059 40.7231 45.8594L40.9126 45.8293C40.9765 45.8486 41.0451 45.8655 41.1203 45.8788C41.5489 45.9589 42.466 45.7159 43.3791 45.9352L43.6387 45.9081C45.1524 46.0917 46.0606 46.9575 45.7985 48.4254C45.7984 48.4255 45.7984 48.4255 45.7984 48.4256C45.7941 48.4564 45.7894 48.4874 45.7844 48.5188C45.6856 49.1132 45.3263 49.7317 45.2224 50.4079C45.1265 51.0842 44.6309 55.4614 44.5692 55.7066C44.522 55.8287 44.5261 55.7416 44.4241 55.598L44.6114 55.5784C44.1871 55.3829 43.6807 55.0271 43.5431 55.0786C43.3922 55.1354 43.2574 55.5602 43.0623 55.661C42.7963 55.7983 42.5654 55.836 42.3502 55.9211L42.4774 55.9009C42.3332 56.0012 42.1927 56.2028 42.048 56.8836C41.7111 56.3747 41.3292 55.8788 40.9473 55.3809C40.6842 55.7188 39.9941 55.0982 39.7989 55.1799C39.635 55.2487 39.621 55.7138 39.4443 55.769C39.2431 55.834 38.8451 55.4089 38.4934 55.5387C37.9194 55.747 37.9622 56.9313 37.6098 57.1273C37.239 57.33 36.5842 56.7522 36.1446 57.2062C36.0938 57.341 36.0471 57.4754 35.9969 57.61C36.0636 57.8998 36.1309 58.1896 36.1987 58.4792C35.9655 58.6358 35.8069 58.0431 35.5866 58.0479C35.5108 58.0495 35.4483 58.0983 35.3932 58.1673C35.2737 58.3375 35.1996 58.6332 35.0869 58.6389C34.9575 58.6449 34.7516 58.1993 34.5846 58.2393C34.3421 58.2952 34.4404 58.952 34.3175 59.0844C34.2671 59.136 33.317 59.5662 33.2633 59.5751C32.8442 59.6296 32.7508 58.7279 32.4085 58.6715C31.4664 58.5183 30.5594 59.3123 29.7077 59.6437C29.3281 59.7918 28.9164 59.7647 28.5192 59.6434C28.9898 57.2923 27.5348 55.5715 28.2524 59.1634C27.7885 58.6737 27.5346 59.6691 27.1081 59.5261C26.8321 59.4325 26.6193 58.94 26.2319 58.9716C25.55 59.0315 24.8079 60.4872 24.5237 57.9087C23.692 58.3887 22.947 57.4484 22.5151 59.7176C22.3123 59.8155 21.8943 59.0837 21.524 58.5934C21.4546 58.4265 21.3901 58.2928 21.3375 58.2399C21.1642 58.0508 19.5388 57.2924 19.2315 57.2182C18.944 57.1533 18.4226 57.0507 18.1247 57.2081C17.7786 57.4062 17.0566 59.6931 16.931 56.8405C16.1096 56.8823 15.7962 56.7243 15.0734 56.0963C14.9399 55.9781 15.086 55.5927 15.0002 55.5542C14.8355 55.4801 14.4403 55.58 14.0735 55.441C14.057 55.4378 14.0412 55.4335 14.026 55.4277C13.7035 55.3055 13.9742 54.4609 13.3318 55.6148C13.0218 55.6876 12.71 55.7594 12.3926 55.8272C12.4523 55.5658 12.5125 55.3048 12.572 55.0432C12.3195 55.2151 12.0653 55.3858 11.8084 55.5544C12.9356 54.0057 11.5598 54.4817 11.2367 55.5705C11.0256 54.9741 10.8086 54.3658 10.5977 53.7418C11.8915 52.0055 9.81242 52.8723 9.14812 53.8405C9.09461 53.7973 9.04112 53.7536 8.98765 53.7095C8.87613 52.8851 8.11855 52.8691 7.79264 51.9733C7.49039 51.0767 7.71427 50.9769 8.3428 50.1707C8.18272 50.0585 8.0235 49.9377 7.86546 49.8059C6.46934 50.1083 6.67483 49.5784 7.03726 49.0573C7.4758 48.6112 8.01773 48.0607 6.78256 47.9917C8.16635 46.904 6.96002 46.4763 6.22704 46.1303C6.14196 46.0904 5.83806 46.229 5.7043 46.1845C5.37997 46.0732 5.52456 45.3476 4.54926 45.8045C4.74762 45.4841 4.94811 45.1663 5.1499 44.8491C4.90181 44.7701 4.6538 44.6896 4.4056 44.6069C4.09661 44.7396 3.78763 44.8724 3.47865 45.0051C4.39387 44.231 3.77773 43.894 3.92908 43.5353C3.9603 43.4641 4.38607 43.2801 4.44136 43.0773C4.50811 42.8398 4.24758 42.5505 4.29951 42.2787C3.78687 42.3764 3.27347 42.4713 2.75928 42.5634C2.34514 42.2503 3.56962 41.6447 3.58578 41.3753C3.58633 41.328 3.22735 40.5774 3.18734 40.5415C2.85828 40.2631 1.77884 40.7216 1.7004 39.5762C1.68885 39.3731 2.03055 39.1088 1.99981 38.9325C1.944 38.6319 0.835319 37.8871 2.30698e-06 37.9705C0.930154 37.3452 0.314519 36.3326 0.572541 35.9382C0.651135 35.8235 1.30861 35.7131 1.41337 35.3942C1.49757 35.1412 0.905493 34.5393 0.980215 34.1964C1.05984 33.8341 1.62003 33.6973 1.65681 33.5431C1.69171 33.3966 1.23791 33.26 1.2438 33.0513C1.27093 32.3875 2.0498 31.8563 2.13739 31.3531C2.22599 30.8495 1.70452 30.2484 1.27979 29.5772C1.07139 29.3381 0.87367 29.0988 0.748551 28.8738C0.873152 28.7619 1.18995 28.7123 1.23969 28.5665C1.83296 27.1957 2.45678 24.6313 6.07663 22.9245C6.34039 22.8474 6.60456 22.7748 6.86406 22.7081C7.62614 22.4927 10.0497 23.5001 8.48574 20.8517C8.55668 20.2372 10.9253 20.7178 11.3038 20.6485C11.6867 20.5571 11.8555 19.949 12.17 19.8627C13.1258 19.6088 13.8583 19.8508 15.0504 19.2259C15.3591 19.0644 15.6677 18.3897 15.8782 18.3824C15.9811 18.3793 16.0946 18.4804 16.2127 18.6027C16.3317 18.7802 16.4601 18.9988 16.593 19.0144C17.1214 19.0732 18.1587 18.8044 18.7634 18.8903C18.8723 18.9072 18.9294 19.4533 19.0899 19.6194C19.7056 20.266 20.417 20.2155 20.3131 18.4654C21.176 19.4693 22.0987 18.6097 23.2059 18.7489C24.213 18.8737 25.833 19.3637 27.3396 20.3396C28.4131 21.0303 29.4051 21.7007 30.2494 21.8485C31.2107 22.0192 31.7129 21.4065 32.2424 22.7502C32.3571 23.0483 32.4312 23.3834 32.5619 23.7426C32.8764 24.5948 32.3609 26.1082 34.03 25.3084C34.0825 25.4633 34.1451 25.6018 34.21 25.7309C33.9247 25.7824 34.4089 26.1666 33.9625 27.4174C34.2407 27.182 34.5197 26.9473 34.802 26.7154C34.886 26.7727 34.9664 26.8273 35.0536 26.8879C34.8613 27.1723 34.6674 27.4554 34.4733 27.7384C34.9693 28.2653 36.6694 27.8964 37.181 28.4122C38.0656 29.229 39.6164 31.9245 39.7993 33.0608C39.9194 33.6604 40.5447 33.2841 39.4649 34.377C39.6183 34.4194 39.7722 34.4641 39.9268 34.5111C40.2456 34.398 40.5657 34.2873 40.8854 34.1765C41.0861 34.4815 41.1826 34.8873 41.2707 35.2911C41.4165 35.7874 41.4951 36.2146 41.6561 36.5382C42.2447 37.7125 43.7151 38.991 43.5478 40.2673C43.5055 40.5876 42.9849 41.1471 43.0824 41.3995C43.2242 41.7694 44.3205 41.4885 44.5053 41.9613C44.8246 42.78 44.073 44.705 44.4044 45.438C44.5035 45.6584 44.9373 45.6416 45.0285 45.7852C45.4172 46.3945 45.5479 46.9489 46.3591 47.4146C45.5238 48.4121 44.1633 48.7324 42.8695 49.3262C41.8935 49.7757 39.655 50.9142 38.772 51.2129C38.1534 51.4282 37.298 51.4867 36.621 51.7377C35.8626 51.1478 36.3799 50.664 37.1679 49.7552C36.7895 48.6153 36.3931 47.4749 35.9827 46.3501C36.3219 46.1243 36.6606 45.8976 36.9989 45.6702C36.9998 45.6699 37.0006 45.6696 37.0014 45.6693C37.2851 45.0848 36.2632 45.2204 35.9666 45.0608C34.1383 44.1272 33.4413 41.4824 33.0966 40.0643C32.7437 39.0283 32.3879 38.0493 31.9744 37.3796C31.7189 36.9371 30.3162 36.1686 30.5207 35.4984C30.5764 35.3201 30.9825 34.8705 30.9323 34.7851C30.0601 34.4417 29.2275 34.2204 28.2003 33.8495C27.99 33.4388 27.7056 33.0716 27.2385 32.4981C26.4491 31.2635 24.9018 30.6019 23.7042 29.8303C23.1219 29.4546 22.5373 29.1119 21.9705 28.8215C21.854 28.7438 19.5038 28.8612 16.8109 29.1845C15.4625 29.3434 13.9052 29.7755 12.2829 30.3337C11.5975 30.5668 10.8878 31.1972 10.143 31.4963C10.3488 31.3868 10.5106 31.2428 10.5979 31.1036C10.8051 30.7648 10.0316 30.1271 10.6158 30.565C10.3938 30.4259 10.1714 30.2876 9.94841 30.1502C10.1492 30.4313 10.6375 30.781 10.5875 31.0746C10.5566 31.2436 10.4355 31.6939 10.3006 32.1146C10.2701 32.1927 10.2347 32.27 10.1938 32.3154C10.1274 32.3936 9.65233 32.2706 9.63778 32.3707C9.61319 32.5533 10.2514 32.9947 10.2529 33.255C10.2471 33.485 9.71144 33.9922 9.81999 34.2258C10.1954 35.0452 11.2094 35.8038 11.2733 36.8368C11.2886 37.1226 10.7946 37.6701 10.8411 37.7564C10.9321 37.9201 11.5348 37.7791 11.6478 37.8684C12.2146 38.3148 11.8675 39.4863 12.0833 40.0976C12.6839 41.8241 13.7101 43.5579 14.5589 45.3268C14.5387 45.2944 14.5237 45.291 14.528 45.3206C14.4139 45.4451 15.9996 46.5248 16.8871 47.5583C17.0679 47.7846 16.658 48.326 16.8592 48.4467C17.0839 48.5812 17.4425 48.2637 17.5687 48.296C17.752 48.3426 17.9804 48.4056 18.2363 48.4873C18.064 48.1753 18.9202 48.2346 19.3734 48.6481C19.4775 48.7538 19.4994 49.2906 19.5779 49.2989C19.6181 49.3041 19.751 48.9571 19.881 48.9354C20.7385 48.7912 21.4938 48.9023 22.3708 49.0756C22.4892 49.1193 22.7153 49.1679 22.9766 49.2035C25.058 49.4541 27.9583 48.5755 30.5268 48.7748C31.0942 48.8164 31.5502 49.8348 31.6276 49.819C31.7988 49.7864 31.8658 49.0763 32.2039 48.8792C32.9373 48.4585 33.8814 48.5801 34.754 48.6021C35.1806 48.6173 35.5832 48.5959 35.9131 48.4379C36.3847 48.2172 36.8944 47.2502 37.2712 46.9866C37.5758 46.7816 38.4094 46.9666 38.4857 46.5429C38.5256 46.2904 38.3935 45.5394 38.4861 45.4194ZM25.7902 58.4035C25.8193 57.1844 25.0092 58.2293 25.3541 58.8696C25.435 59.0139 25.7828 58.7202 25.7902 58.4035ZM4.28202 26.864C3.97651 26.6975 3.67029 26.5324 3.36339 26.3684C3.39847 26.5958 3.44482 26.8141 3.50032 27.023C3.72726 27.0385 3.95416 27.0569 4.17897 27.0818C4.21202 27.0092 4.24586 26.9374 4.28202 26.864Z" fill="#E582C3"/>
<path d="M53.0523 58.4837C52.8775 58.5382 52.738 58.0487 52.5602 57.9898C51.8145 57.7357 51.6053 57.3651 50.9899 57.0399C50.7293 56.901 50.3002 56.7926 49.8554 56.6353L49.9506 56.6585C49.5079 56.433 48.0658 55.8816 48.4437 53.6529C48.4437 53.6529 48.4437 53.6528 48.4438 53.6527C48.4484 53.622 48.4534 53.591 48.4586 53.5597C48.5587 52.9647 48.8754 52.3468 49.0099 51.6773C49.147 51.0079 49.7847 46.6481 50.1489 46.4539C50.6371 46.1943 51.7547 47.5353 52.0608 47.5706C52.0691 47.5711 52.0776 47.571 52.0863 47.5703L52.1418 47.5838C52.3083 47.5628 52.5794 47.2484 52.7804 47.2272C53.4522 47.1538 53.7179 47.5134 54.4699 46.5575C54.5662 47.1622 54.6727 47.7668 54.791 48.3709C54.9525 48.27 55.1049 48.4076 55.244 48.5753L55.0405 48.5488C55.2367 48.7222 55.4055 48.9335 55.5137 48.9235C55.6853 48.9076 55.833 48.4678 56.0078 48.4663C56.2039 48.462 56.4396 48.9821 56.7803 48.9464C57.3364 48.8891 57.5444 47.7205 57.8508 47.5987C58.1627 47.4721 58.5708 48.1466 58.9311 47.7411C58.9782 47.6125 59.0234 47.4836 59.0672 47.3544C59.0448 47.0596 59.0244 46.7647 59.0057 46.4697C59.161 46.3371 59.2155 46.9408 59.3586 46.9519C59.5254 46.9645 59.5917 46.3905 59.6905 46.3897C59.7707 46.3895 59.9073 46.8416 60.0165 46.805C60.1719 46.7536 60.0809 46.0963 60.1452 45.9661C60.1797 45.9194 60.6656 45.4837 60.6888 45.4691C60.9068 45.4019 61.1156 46.283 61.3452 46.3109C61.3988 46.3171 61.4518 46.3159 61.504 46.308C62.3305 46.1556 62.9647 45.327 63.5946 44.8801C63.9025 44.6617 64.2705 44.606 64.6482 44.6399C64.7899 47.0248 66.5506 48.3636 65.0005 45.048C65.5349 45.4198 65.4936 44.4022 65.8903 44.4421C66.1478 44.4681 66.4695 44.8893 66.7855 44.7616C67.3542 44.5292 67.4089 42.9695 68.5348 45.3018C69.0181 44.6166 69.9667 45.2181 69.2425 43.0402C69.3369 42.8447 70.3187 43.8843 70.585 43.9586C70.8301 44.0426 72.4129 43.9014 72.6383 43.7998C72.8641 43.7107 73.2454 43.5263 73.31 43.2502C73.3229 43.1975 73.3077 43.1031 73.2791 42.9892C73.1489 42.3445 72.6124 41.106 74.2216 42.8601C74.6033 42.3554 74.8194 42.3123 75.4552 42.2882C75.5697 42.2841 75.7994 42.6247 75.8491 42.5934C75.9514 42.528 75.9559 42.1646 76.1157 42.0176C76.3751 41.7783 77.0136 42.3938 76.2617 41.3081C76.3315 40.9988 76.4029 40.6878 76.4693 40.3793C76.6761 40.5482 76.8828 40.7171 77.0895 40.886C77.0364 40.5883 76.986 40.2886 76.9315 39.9913C77.872 41.6608 77.9547 40.2486 77.1132 39.4931C77.6925 39.5799 78.2714 39.6632 78.8508 39.741C80.0451 41.5572 79.775 39.3954 79.0055 38.4923C79.0447 38.4662 79.0854 38.439 79.1249 38.4125C79.8023 38.6342 79.8276 38.0289 80.4503 38.0371C81.0751 38.0413 81.1687 38.2335 81.9136 38.9166C81.9721 38.7959 82.0249 38.6788 82.0798 38.5589C80.8742 36.2975 83.3006 39.1753 83.2339 37.9349C83.2347 37.8118 83.2133 37.6538 83.1647 37.4537C84.6298 38.4335 84.6915 37.1369 84.7923 36.3318C84.8037 36.2384 84.5761 35.994 84.5768 35.8528C84.5795 35.5124 85.3034 35.4248 84.5514 34.6529C84.9114 34.7431 85.2694 34.8347 85.6258 34.9266C85.6087 34.6732 85.5884 34.422 85.5621 34.1753C85.3282 33.9337 85.0943 33.6921 84.8605 33.4504C85.8789 34.0621 85.8927 33.4255 86.2157 33.4803C86.2826 33.4902 86.6282 33.8006 86.802 33.7983C87.0098 33.795 87.0524 33.5305 87.1969 33.574C86.7941 33.2545 86.3657 32.9664 85.8898 32.7596C85.6071 32.8578 85.8577 33.6374 86.2479 34.437C86.4349 34.4161 86.5874 34.3861 86.6202 34.346C86.6444 34.3356 86.5242 33.8536 86.4871 33.8211C86.2303 33.6037 85.112 33.8337 85.2416 33.1666C85.2628 33.0438 85.6326 32.863 85.622 32.7472C85.6064 32.5314 84.5662 32.2097 83.7597 32.4521C84.6958 31.9227 84.0778 31.5181 84.289 31.2665C84.3533 31.1841 84.9557 30.8922 85.0112 30.6823C85.0539 30.5033 84.4341 30.4856 84.4454 30.3395C84.4565 30.174 84.8916 29.8185 84.8855 29.7407C84.8789 29.668 84.485 29.8972 84.4501 29.849C84.3562 29.7034 84.7791 29.1054 84.7217 29.0441C84.7192 29.041 84.7152 29.0404 84.7101 29.0423C84.2175 28.8073 83.1215 29.5591 82.4723 29.8021C82.4365 29.6718 82.5157 29.3772 82.429 29.3154C81.3621 28.531 80.4796 27.7982 79.9657 27.4073C79.8419 27.299 79.6264 26.651 79.4267 26.6962C79.1188 26.7357 78.9639 27.1533 79.2061 28.4538C79.0685 28.982 77.4888 27.9052 77.1717 27.9413C76.8785 27.9632 76.7313 28.537 76.5086 28.5815C75.8388 28.7173 75.2709 28.4251 74.5557 29.0755C74.3714 29.2454 74.303 29.9268 74.1818 29.9497C74.0342 29.9761 73.7193 29.4129 73.5157 29.4268C73.0311 29.4618 72.25 29.9138 71.7938 29.9576C71.7097 29.9639 71.5054 29.4545 71.3352 29.3322C70.6702 28.8535 70.182 29.1051 70.9024 30.7025C70.0037 29.9842 69.8449 31.036 69.4118 31.2984C68.5244 31.8061 66.796 32.4025 66.4379 33.4098C66.3979 33.4827 66.3623 33.5565 66.332 33.6309C66.0021 34.4522 66.4818 35.0712 65.2213 35.1666C64.9413 35.1884 64.6322 35.1671 64.2981 35.195C63.5156 35.2578 62.1402 34.4877 62.8237 36.1715C61.973 36.263 61.74 36.8647 60.3782 36.0524C60.5581 36.3687 60.7388 36.6843 60.9207 36.9991C60.86 37.0613 60.7994 37.1235 60.7392 37.1858C60.4986 36.9416 60.2577 36.6977 60.0164 36.4542C59.4694 36.7941 59.8156 38.3614 59.4535 38.683C58.9107 39.1521 57.505 39.9911 56.7011 40.3621C56.5446 40.4456 56.4006 40.5158 56.2757 40.5656C55.8171 40.7512 56.3878 41.2119 55.0404 40.4969C55.0644 40.6382 55.0886 40.7798 55.1142 40.9203C55.3415 41.1664 55.5699 41.4113 55.7994 41.655C55.4886 42.0958 54.6987 42.3315 54.416 42.7692C53.8867 43.5777 53.9945 45.1882 53.111 45.665C52.8848 45.7866 52.1551 45.7471 52.0786 45.9443C52.0664 45.9753 52.0679 46.0088 52.0801 46.0444C52.2277 46.2225 53.0573 46.5547 53.0197 46.7413C52.9363 47.064 51.4285 48.0929 51.4758 48.7925C51.4866 48.9915 51.8979 49.1154 51.9331 49.2505C52.0867 49.8093 52.0401 50.2882 52.6973 50.728C51.6316 51.2188 50.2449 51.271 48.8573 51.5742C47.8036 51.7648 45.44 52.6705 44.6291 53.2166C44.032 53.522 43.0938 53.232 42.4391 53.583C41.9163 52.5155 41.9487 52.1612 42.1222 51.7095C42.3102 51.289 42.7114 50.9296 43.216 50.5051C43.1796 48.9537 43.2574 47.5043 43.494 45.9315C43.9062 45.8586 44.3184 45.7934 44.731 45.7347C44.7318 45.7348 44.7326 45.735 44.7335 45.7352C45.294 45.2609 44.3764 44.7812 44.2518 44.3683C44.1078 43.8885 44.0545 43.3436 44.1583 42.6811C44.3963 39.3717 47.6032 36.4355 49.6077 34.5804C49.8285 34.3667 50.0378 34.1664 50.2286 33.979C50.725 33.4575 51.9318 31.5084 52.7045 31.6812C52.9041 31.7224 53.3381 32.1456 53.4458 32.0823C54.0067 31.0779 54.5984 30.0987 55.206 29.1368C57.4779 28.4794 58.7906 26.5746 60.3704 25.2126C60.3923 25.1942 60.4142 25.1759 60.4362 25.1577C65.81 20.8494 71.9198 18.6509 78.4329 18.269C78.6329 18.261 78.8577 18.2412 79.0751 18.2171C80.8707 18.0382 82.8987 18.2727 84.0409 19.0145C84.6205 19.3858 84.4198 20.3612 85.4351 20.0726C85.3196 20.3079 85.2039 20.543 85.0878 20.7779C85.8006 20.8017 86.4624 20.501 87.0783 20.8189C87.6106 21.0901 88.7852 21.8622 89.0643 22.1866C89.2173 22.3567 88.8663 22.7078 89.0345 22.8243C89.0544 22.8379 89.0778 22.8498 89.104 22.8604C89.8138 23.2302 91.146 23.751 91.6077 24.3743C92.0925 24.9862 92.1748 26.2283 92.4532 26.6011C93.4954 27.9675 94.8693 29.3987 95.0098 31.2359C95.0486 31.7435 94.5104 32.4766 94.5445 32.6285C94.6172 32.9288 95.239 32.9646 95.3371 33.1855C95.5178 33.5946 95.5398 34.1361 95.4494 34.7667C95.3255 36.3342 94.8723 36.995 94.5885 37.4912C94.2835 37.9701 94.0213 38.2519 93.8004 38.4765C93.3511 38.9244 93.0257 39.1589 92.7958 39.3976C91.0779 41.0918 89.8739 42.275 88.5972 43.5423C88.0632 44.0607 87.5338 44.5088 87.0107 44.9023C85.5978 45.981 83.4686 47.5835 82.0103 47.9875C81.6956 48.0757 81.3941 47.4654 81.1764 47.6087C80.9393 47.7645 81.0551 48.2335 80.9648 48.3364C80.3561 49.0296 78.99 50.4062 78.0138 50.5803C77.9622 50.5919 77.9118 50.6005 77.8627 50.6059C77.6559 50.6284 77.2674 50.2449 77.175 50.3027C77.1276 50.3312 77.2047 50.7061 77.0714 50.8272C75.8915 51.892 74.774 52.221 73.3729 52.7199C70.7037 53.6742 67.8361 55.3162 65.0089 55.6898C64.4849 55.7603 63.9231 55.1043 63.7256 54.9316C63.6866 54.9038 63.6593 54.8894 63.6454 54.8945C63.4366 54.968 63.465 55.6892 63.0325 55.9574C61.5633 56.8706 59.2713 56.2138 57.9168 56.454C57.2241 56.5868 56.2423 57.3806 55.6481 57.5112C55.2292 57.5992 54.4873 57.2759 54.1767 57.4222L53.7988 57.3728C53.7233 57.3902 53.6622 57.4218 53.6191 57.4721C53.4389 57.682 53.2423 58.4208 53.0523 58.4837ZM67.3284 45.1888C67.6859 46.356 68.0369 45.1407 67.5385 44.6312C67.4287 44.516 67.2365 44.8861 67.3284 45.1888ZM82.1157 26.6164C81.9549 26.9247 81.7937 27.2329 81.6319 27.5407C81.7733 27.4531 81.9184 27.3685 82.0667 27.2868C82.1279 27.0809 82.1873 26.8744 82.2448 26.667C82.2015 26.6497 82.1585 26.6328 82.1157 26.6164Z" fill="#E582C3"/>
<path d="M38.6572 59.5807C38.5638 59.5516 38.99 59.3774 38.9987 59.3178C39.0383 59.0802 39.3172 58.9547 39.3805 58.611L39.5652 59.0387C39.5683 59.0349 39.5713 59.0313 39.5744 59.0278C39.6303 58.8761 39.785 59.2243 39.7872 58.7884C39.8029 58.3864 39.8629 57.554 40.9686 56.4208C40.9686 56.4208 40.9687 56.4207 40.9688 56.4207C40.9903 56.3983 41.0123 56.3759 41.0347 56.3533C41.4589 55.9243 42.0412 55.572 42.5385 55.1044C43.0368 54.6376 46.0993 51.4682 46.5013 51.5195C47.0527 51.5895 47.1081 53.3554 47.3245 53.618C47.482 53.7795 47.9824 53.8103 48.202 54.0487C48.4184 54.2823 48.5512 54.4992 48.6694 54.6828L48.7937 54.9705C48.9901 55.3119 49.1946 55.6006 50.0659 55.8847C49.6032 56.3375 49.1237 56.767 48.6261 57.1497C48.968 57.4272 48.3239 58.0684 48.3957 58.2381C48.4581 58.3914 48.9185 58.3938 48.9666 58.5575C49.0219 58.7343 48.5796 59.0784 48.6941 59.3811C48.8779 59.8745 50.061 59.8285 50.2455 60.1318C50.435 60.4375 49.8422 60.9949 50.2893 61.3579C50.4231 61.3968 50.5568 61.4363 50.6906 61.4766C50.981 61.4169 51.2713 61.3568 51.5616 61.2964C51.7146 61.488 51.1212 61.6362 51.1236 61.8145C51.1263 62.03 51.7045 62.1042 51.7122 62.2559C51.7175 62.3732 51.2705 62.5632 51.3089 62.7177C51.3625 62.9447 52.02 62.8551 52.1508 62.967C52.2025 63.0088 52.6155 63.8869 52.6222 63.936C52.6673 64.3282 51.7629 64.3875 51.6971 64.6948C51.517 65.5302 52.2773 66.3686 52.5746 67.1116C52.7081 67.4614 52.6639 67.7977 52.527 68.1477C50.1968 67.6686 48.4191 68.8814 52.0368 68.3672C51.5287 68.7426 52.5132 68.9931 52.3542 69.3554C52.2501 69.5819 51.7498 69.7462 51.7681 70.076C51.8038 70.6546 53.241 71.2717 50.6583 71.4681C50.9275 71.8494 50.7247 72.2167 50.9569 72.504L50.9448 72.8763C51.0957 73.0791 51.4757 73.2543 52.4218 73.4146C52.5498 73.5834 51.1667 73.9152 50.9707 74.0953C50.7866 74.2516 50.0891 75.6324 50.0349 75.8837C49.9844 76.1212 49.9134 76.5544 50.0932 76.7871C50.3161 77.0687 52.6505 77.5408 49.8395 77.7426C49.9844 78.37 49.87 78.6025 49.4346 79.1439C49.3545 79.244 48.9501 79.1697 48.936 79.2325C48.9079 79.3602 49.151 79.6571 49.1185 79.917C49.0626 80.3501 48.1564 80.3151 49.4256 80.6859C49.5379 81.0487 49.6299 81.4334 49.6921 81.844C49.4092 81.8551 49.1279 81.8573 48.8475 81.8529C49.0208 82.1335 49.1824 82.4274 49.3296 82.7355C47.775 81.6303 48.0908 83.2681 49.223 83.5225C48.5973 83.8774 47.9483 84.1539 47.3139 84.336C47.2191 84.344 47.1242 84.3517 47.0291 84.3591C45.5177 82.8052 46.1786 84.8556 47.0406 85.6591C47.0016 85.6942 46.9624 85.7294 46.9229 85.7646C46.1946 85.6603 46.2039 86.2913 45.5246 86.364C44.8502 86.4284 44.7541 86.2283 43.9983 85.5572C43.9386 85.6794 43.8769 85.802 43.814 85.9242C44.9379 88.5113 42.2184 84.6481 42.5084 86.9953C41.2511 85.7701 41.0479 86.9634 40.7198 87.7208C40.6839 87.8079 40.8371 88.1048 40.7954 88.242C40.6897 88.5786 39.9329 88.4544 40.3846 89.4298C40.0431 89.2399 39.7104 89.0403 39.3859 88.8313C39.2834 89.0806 39.1695 89.3302 39.0434 89.5791C39.1512 89.8976 39.259 90.2161 39.367 90.5346C38.6075 89.5848 38.118 90.1707 37.7168 89.9719C37.6405 89.9308 37.5328 89.4807 37.317 89.3923C37.068 89.2873 36.6574 89.484 36.3589 89.3612C36.2922 89.8824 36.2068 90.4031 36.0993 90.9225C35.9502 90.9999 35.8182 90.9685 35.7058 90.8774C35.5176 90.6071 35.4084 89.8309 35.2573 89.7532C35.2218 89.7354 34.5551 89.8359 34.5173 89.8645C34.2162 90.0932 34.3107 91.2532 33.4082 90.9957C33.2455 90.9485 33.1221 90.5463 32.9752 90.5268C32.7235 90.4945 31.8745 91.3669 31.7504 92.197C31.4672 91.1356 30.5046 91.487 30.2452 91.1488C30.1704 91.0464 30.2262 90.3815 29.9907 90.2087C29.8039 90.0698 29.1839 90.5188 28.9225 90.3795C28.6495 90.2314 28.6573 89.6595 28.5409 89.5954C28.431 89.535 28.2251 89.9543 28.059 89.9137C27.5384 89.7782 27.2723 88.9457 26.8955 88.8121C26.3531 88.6182 25.3899 89.6883 24.6389 90.0156C24.5475 89.8819 24.5412 89.5646 24.4172 89.5054C23.7236 89.1704 23.0398 88.7383 22.4159 88.2552C21.4799 87.561 20.5413 86.6141 19.8586 85.5017C19.1096 84.5078 19.9436 81.4893 17.3238 83.1274C17.1139 83.0525 16.984 82.6271 16.9618 82.0951C16.9968 81.3651 17.4001 80.4104 17.3779 80.1876C17.3427 79.8575 16.7659 79.6757 16.7223 79.4155C16.5939 78.6285 16.9241 78.0457 16.381 77.1364C16.2393 76.8963 15.5798 76.6743 15.5791 76.5206C15.5801 76.3437 16.1941 76.1173 16.2251 75.8927C16.2907 75.3483 16.0749 74.3388 16.1943 73.8177C16.217 73.7228 16.7654 73.6994 16.9396 73.5689C17.6194 73.0696 17.5911 72.5042 15.8387 72.515C16.8645 71.8883 16.0078 71.2138 16.017 70.5652C16.0266 69.956 16.1821 69.1363 16.3256 68.3104C16.5122 67.2028 16.7328 66.0652 16.5676 65.2191C16.3866 64.253 15.6293 63.976 16.7727 62.9437C17.0298 62.7182 17.3379 62.521 17.6583 62.2649C18.4286 61.6345 20.029 61.7605 18.92 60.2601C19.8306 59.6877 20.1113 58.8256 21.7009 59.2878C21.4885 58.9879 21.2806 58.6839 21.0775 58.3759C21.1548 58.2794 21.2335 58.1836 21.3134 58.0885C21.5855 58.2988 21.8559 58.5111 22.1246 58.7252C22.741 58.2185 22.6907 56.4317 23.3617 55.981C23.582 55.8307 23.8909 55.6548 24.257 55.4832C25.3584 54.9978 27.0475 54.6005 27.8263 54.6412C28.3463 54.6653 28.0673 53.9896 28.9284 55.2498C28.9763 55.1129 29.0251 54.9762 29.0747 54.8394C28.9982 54.5128 28.923 54.1857 28.8492 53.8583C29.3876 53.6057 30.2265 53.8119 30.7344 53.6073C31.6562 53.2286 32.7922 51.8692 33.9419 52.1372C34.2302 52.204 34.7231 52.7641 34.9546 52.6876C35.2871 52.5788 35.0626 51.4695 35.4979 51.3261C36.2613 51.0737 37.9934 51.9975 38.6954 51.7535C38.9096 51.6791 38.9232 51.2486 39.07 51.1738C39.6818 50.8583 40.2111 50.7994 40.8187 50.0614C41.7221 51.0341 41.7935 52.4385 42.1384 53.8178C42.4106 54.8572 42.9438 57.2989 42.9001 58.2335C42.9059 58.8869 42.8889 59.7277 42.9076 60.4468C42.8097 61.0236 42.4509 60.4219 41.8602 59.4871C40.9923 59.6585 40.0491 59.8986 39.1243 60.1691C38.9428 59.8096 38.762 59.4502 38.5776 59.0921C38.5774 59.0912 38.5772 59.0904 38.577 59.0896C38.0892 58.7468 38.1924 59.7669 38.0571 60.0416C36.7911 62.6304 32.8198 62.2537 30.8558 63.0296C30.5412 63.1443 29.9183 63.8071 29.4114 63.982C29.2843 64.0123 29.1552 63.9941 29.0202 63.8896C28.8832 63.7818 28.5253 63.2931 28.4562 63.3095C28.1894 63.9392 28.0486 64.5716 27.9986 65.1915C26.5549 65.441 26.5871 67.1022 26.4023 68.3506C26.3175 68.8574 26.2631 69.3822 26.2348 69.9182C26.022 73.2971 26.426 76.8134 26.9816 79.7706C26.9804 79.779 26.9783 79.7843 26.9752 79.7877C26.9827 79.8385 27.2347 79.4572 27.1868 79.8098C27.163 79.9475 26.668 80.795 27.2484 80.3053C27.1118 80.5288 26.9755 80.7525 26.8397 80.9765C26.8546 80.9704 26.8696 80.9638 26.8847 80.9567C27.3099 80.8359 27.7376 80.4461 28.0282 80.531C28.2866 80.6149 28.9109 80.8392 29.0911 81.0013C29.1847 81.0868 28.9856 81.536 29.0962 81.5701C29.2953 81.629 29.8715 81.0884 30.1222 81.1418C30.3465 81.1943 30.6793 81.8242 30.9059 81.7716C31.7022 81.5903 32.5994 80.8026 33.5539 81.0395C33.8154 81.1069 34.1706 81.7427 34.2594 81.7251C34.4308 81.6884 34.4834 81.0718 34.5986 80.9923C34.882 80.7991 35.2491 80.8662 35.6314 80.9905C35.6419 81.1289 35.759 81.3254 35.8555 81.3214C36.4917 81.3241 37.7522 80.3739 38.9565 79.5262C39.4627 79.1831 40.1215 78.5546 40.7387 78.0473C40.7944 78.0653 40.8683 78.1269 41.0472 78.1416C41.1544 78.1507 41.7617 78.4473 41.7911 78.3807C41.8253 78.3 41.4145 78.0928 41.3919 78.0461C41.2467 77.7583 40.9668 76.6379 41.476 76.0267C41.5753 75.9202 42.1098 75.8777 42.1138 75.804C42.1168 75.766 41.7632 75.6572 41.7351 75.5374C41.4847 74.4775 41.7339 73.6456 41.9385 72.4956C41.9545 72.4054 41.9691 72.3135 41.9827 72.2201L41.9711 72.5778C42.111 70.5169 41.4716 68.2337 41.7461 66.1433C41.808 65.6572 42.8408 65.3115 42.8272 65.2356C42.7998 65.0881 42.0925 65.022 41.9056 64.7446C41.2909 63.7997 41.961 62.4691 41.5268 61.6267C41.3143 61.2078 40.3636 60.7435 40.1175 60.4154C39.9236 60.1387 40.1602 59.477 39.7549 59.4771C39.5102 59.4673 38.7623 59.6116 38.6572 59.5807ZM51.1858 70.4342C49.9677 70.383 50.9887 71.073 51.6386 70.8001C51.785 70.7376 51.502 70.4462 51.1858 70.4342ZM23.5121 86.6189C23.3383 86.9202 23.1649 87.2217 22.9919 87.5234C23.165 87.459 23.336 87.3921 23.5047 87.3227C23.5556 87.1105 23.6083 86.8991 23.6629 86.6884C23.6126 86.6656 23.5624 86.6424 23.5121 86.6189Z" fill="#E582C3"/>
<path d="M47.0059 59.1963C47.1642 59.3114 47.4275 58.8822 47.5734 58.8634C48.0904 58.7907 48.2886 58.533 48.656 58.2488C48.7558 58.1724 48.8932 58.079 49.0067 57.9901C49.5569 57.5636 48.9566 57.9804 48.2864 58.1108C47.597 58.2364 46.761 58.0212 45.8861 56.7017C45.886 56.7016 45.886 56.7015 45.8859 56.7015C45.8688 56.6756 45.8516 56.6493 45.8344 56.6226C45.5091 56.1145 45.3021 55.4615 44.9482 54.8775C44.5941 54.2934 42.1364 50.637 42.2176 50.2851C42.3478 49.8062 43.7589 50.2193 43.9467 50.0406C44.067 49.9223 44.0281 49.4701 44.2504 49.2577C44.5843 48.9288 45.1748 48.6566 45.6916 48.4178C46.214 48.1723 46.6505 47.8864 47.3155 47.2919C47.8926 47.8366 48.3537 48.4418 48.7062 49.0779C48.992 48.9982 49.322 49.1688 49.5983 49.4016C49.8449 49.6461 50.0442 49.9581 50.2155 50.0158C50.4744 50.1044 50.8562 49.7909 51.1986 49.9961C51.5749 50.2476 51.9188 51.028 52.4701 52.1276C52.5836 52.3638 52.6816 52.5869 52.7707 52.7934C53.1525 53.1128 54.0771 53.0851 54.2617 53.4276C54.4806 53.8537 53.9279 54.6212 54.3011 55.4176C54.4258 55.5241 54.5484 55.6389 54.6679 55.7615C54.9682 55.7087 55.2679 55.6481 55.5668 55.5822C55.6683 56.0796 55.043 56.2338 54.9367 56.7151C54.7989 57.2936 55.2232 57.8293 55.0088 58.336C54.8281 58.7545 54.1305 59.0961 53.7813 59.6019C53.3063 60.2598 53.7058 60.5567 53.5973 60.9607C53.592 61.0018 53.5792 61.0425 53.5566 61.0828C53.5122 61.1629 53.0319 61.7335 52.5823 62.1492C52.1283 62.5791 51.6824 62.912 51.6315 62.9418C50.8362 63.368 50.4221 62.5426 49.8295 62.6778C48.2169 63.017 46.6712 63.8997 45.0403 64.0192C44.478 64.0624 43.9054 63.9518 43.3911 63.7434C43.3234 63.7051 43.2562 63.6619 43.19 63.6146C44.2794 61.4939 43.515 59.4485 43.0932 63.0812C42.8232 62.4823 42.2877 63.3563 41.9181 63.0834C41.6794 62.9052 41.6345 62.3706 41.2406 62.2642C40.5693 62.093 39.1519 63.0845 39.9099 60.597C38.8387 60.6525 38.5297 59.4067 36.922 61.0808C36.5398 61.0121 36.6037 59.3753 36.4582 58.9867C36.3778 58.8016 35.8967 58.1147 35.5218 57.2879C35.1332 56.469 34.9307 55.558 34.8678 55.3229C34.8521 55.2697 34.8354 55.212 34.8181 55.1509C34.6652 54.6333 34.5524 53.9969 34.3361 53.6891C34.0403 53.3336 31.6225 52.8653 34.4342 52.0631C34.3691 51.6464 34.3785 51.3127 34.4504 51.0005C34.5086 50.7755 34.657 50.5735 34.9408 50.2322C35.0299 50.1246 35.4297 50.2215 35.4499 50.1518C35.4907 50.0095 35.2785 49.6608 35.3564 49.3488C35.491 48.824 36.4223 48.9221 35.209 48.392C35.1876 47.9362 35.2188 47.4422 35.3112 46.9328C35.6136 46.948 35.9123 46.9768 36.2047 47.0208C36.1331 46.6683 36.0859 46.3025 36.0645 45.9271C37.2305 47.4277 37.5807 45.6114 36.5206 45.0828C37.3207 44.8491 38.0733 44.7802 38.7474 44.8117C38.8404 44.8394 38.9332 44.8674 39.0258 44.8956C39.929 46.8684 39.9568 44.7245 39.3949 43.6866C39.4409 43.6669 39.4869 43.6474 39.5329 43.6279C40.1697 43.9689 40.344 43.3729 40.9979 43.5177C41.6479 43.6668 41.6826 43.8842 42.1989 44.7529C42.2935 44.6541 42.3866 44.5566 42.4843 44.4584C42.1872 41.6535 43.6189 46.1529 44.0764 43.8181C44.9213 45.3619 45.4876 44.2787 46.1616 43.6699C46.237 43.5995 46.1974 43.2676 46.3039 43.1523C46.5646 42.8641 47.3955 43.274 47.4003 42.2052C47.7292 42.5226 48.0453 42.8587 48.3445 43.221C48.3754 43.2062 48.4066 43.1915 48.4381 43.1771C48.6329 43.0314 48.8363 42.8902 49.0502 42.7551C49.1187 42.4259 49.1871 42.0966 49.2555 41.7674C49.4316 42.9711 50.1829 42.7239 50.4505 43.1122C50.4999 43.1889 50.3593 43.6294 50.5117 43.8231C50.6856 44.0483 51.1805 44.1185 51.3952 44.4035C51.7488 44.0108 52.1248 43.6336 52.524 43.2753C53.3013 43.4337 52.6973 44.7005 52.9021 45.0131C52.9363 45.0509 53.539 45.5484 53.8072 45.8413C53.848 45.8738 53.8796 45.8968 53.8894 45.8985C54.2496 45.9817 55.0611 45.1351 55.4829 46.0679C55.5586 46.2381 55.3333 46.6021 55.4208 46.7465C55.5705 46.9823 56.8722 47.2892 57.6374 46.9455C56.9894 47.8602 57.9229 48.6996 57.7921 49.1797C57.7517 49.3194 57.1525 49.6089 57.1416 49.9558C57.1312 50.2252 57.8641 50.6913 57.8703 51.0538C57.8775 51.4363 57.3574 51.687 57.3543 51.8458C57.3506 51.9951 57.8217 52.0302 57.8577 52.2362C57.961 52.8808 57.2862 53.5092 57.2913 53.9642C57.2969 54.6138 58.6096 55.2555 59.1349 55.9556C59.032 56.099 58.7278 56.214 58.704 56.3652C58.5699 57.1982 58.3208 58.0217 58.0014 58.7819C57.6763 59.458 57.305 60.3152 56.6179 61.4002C56.3319 61.8434 55.4065 62.5607 54.4911 63.2463C53.6255 63.9224 52.7009 64.5458 54.074 65.6065C53.9287 65.8395 53.3021 66.1577 52.4741 66.2822C51.7503 66.2976 50.6075 65.8115 50.3639 65.8286C50.0236 65.8575 49.8182 66.4308 49.5495 66.4685C48.7338 66.5788 48.153 66.2328 47.1932 66.7467C46.9453 66.8803 46.6843 67.532 46.5286 67.5271C46.3409 67.5198 46.1365 66.8978 45.9011 66.858C45.3408 66.7721 44.2676 66.9405 43.7116 66.7875C43.61 66.7589 43.6153 66.2099 43.4868 66.0275C42.9898 65.317 42.3737 65.2944 42.2572 67.0433C41.6266 65.9605 40.7817 66.7348 39.9409 66.5852C38.8499 66.2614 37.2858 66.2104 34.6015 63.6234C34.2688 63.3054 33.7359 62.8944 33.1951 62.7009C32.3037 62.3544 31.6687 62.8749 31.338 61.2332C31.2685 60.8631 31.2494 60.4595 31.1883 59.9989C31.0223 58.8651 32.034 57.5587 30.1312 57.3831C30.186 56.1352 29.7035 55.1961 31.1076 54.2527C30.7421 54.1991 30.3767 54.1371 30.0118 54.0667C29.992 53.9286 29.9746 53.7928 29.9593 53.6578C30.2986 53.5991 30.6382 53.5435 30.9781 53.491C31.0265 52.6224 29.7214 51.3771 29.8626 50.5956C29.8884 50.4468 29.9284 50.2707 29.9828 50.0746C30.1429 49.5803 30.4302 48.7843 30.9411 47.7813C31.4278 46.7958 32.3149 45.5799 33.0668 45.0131C33.9363 44.3647 33.6113 43.735 35.0058 44.54C35.122 44.321 35.2533 44.1054 35.3985 43.8953C35.3967 43.8814 35.395 43.8675 35.3933 43.8536C35.3216 43.5273 35.2598 43.1974 35.2068 42.8649C36.1765 42.319 37.2215 42.5061 37.8652 42.3009C39.0371 41.9212 40.4852 40.7222 41.6242 41.1564C41.9081 41.2651 42.3218 41.893 42.5661 41.8533C42.9223 41.7966 42.8732 40.6662 43.3353 40.5922C44.1401 40.4631 45.6941 41.6478 46.4032 41.5072C46.6139 41.4651 46.6939 41.0404 46.8402 40.9874C47.4589 40.761 47.9727 40.7736 48.5651 40.1077C49.2533 41.1701 49.2207 42.568 49.4343 43.9713C49.605 45.0302 50.0494 47.4886 50.0943 48.4192C50.1318 49.0726 49.9925 49.9133 50.0464 50.6325C49.4209 51.2098 49.1401 50.5851 48.5615 49.591C47.5542 49.6655 46.5401 49.7661 45.547 49.8933C45.4217 49.5101 45.2949 49.1273 45.1661 48.745C45.166 48.7441 45.166 48.7433 45.1659 48.7424C44.7298 48.3282 44.6659 49.3522 44.4868 49.6024C43.2855 51.3736 40.3402 51.3485 39.8012 51.186C39.955 51.0064 40.0748 50.7776 40.0925 50.6459C40.1147 50.5102 40.0626 50.4748 40.0142 50.5151C39.9773 50.5416 40.0026 50.7184 39.9805 51.0237C39.9591 51.3208 39.895 51.7298 39.6786 51.9546C39.6246 51.993 39.5595 52.0199 39.4802 52.0329C39.3068 52.0604 38.7067 51.9784 38.67 52.0412C38.9306 52.6992 39.2966 53.2114 39.7094 53.5387C38.9135 54.5613 40.0723 55.1647 41.1446 56.1179C41.4161 56.3736 41.727 56.6555 42.093 57.0145C41.6761 56.5215 41.697 56.6059 41.8717 56.6064C42.0487 56.63 42.3618 56.6767 42.7118 56.7053C43.4207 56.7665 44.2813 56.7761 45.1463 56.7444C46.8781 56.6803 48.7356 56.4727 50.2584 56.197C50.0983 56.2344 49.9318 56.2871 49.769 56.3544C48.8483 56.7257 48.3368 57.3438 48.2494 57.3635C48.1375 57.4257 48.2154 57.1681 48.45 56.912C48.651 56.6891 49.6199 56.8446 49.0692 56.1644C49.3214 56.2355 49.5735 56.3067 49.8257 56.3778C49.8144 56.3451 49.802 56.3124 49.7886 56.2798C49.5548 55.9232 49.0865 55.6355 49.0821 55.3798C49.0882 55.1365 49.1026 54.624 49.1959 54.4779C49.2462 54.398 49.7359 54.4242 49.7318 54.3395C49.7216 54.1776 49.0216 53.9811 48.9936 53.8573C48.9741 53.7419 49.4446 53.3424 49.3166 53.2394C48.8661 52.8852 47.9418 52.9541 47.6253 52.1839C47.5404 51.9708 47.8047 51.2899 47.7284 51.224C47.5835 51.1039 47.0637 51.4415 46.9135 51.3811C46.9109 51.3801 46.9082 51.379 46.9056 51.3779C46.8602 51.6401 47.1253 51.7666 47.3082 51.7193C47.5002 51.6809 47.5853 51.4989 47.545 51.4698C47.4895 51.4235 47.3062 51.3677 47.0463 51.3333C47.5062 51.3951 47.1319 51.3846 46.7365 51.5251C46.3166 51.6507 45.7709 51.8423 45.1978 52.0194C44.5778 52.2079 43.6774 52.6394 42.8049 52.9651C42.7811 52.9225 42.905 52.7276 42.8778 52.5037C42.8623 52.3681 42.3154 51.9677 42.3296 51.9489C42.3402 51.9344 42.7405 52.1529 42.7823 52.1531C42.9405 52.169 43.1013 52.2321 43.0613 52.7966C43.1651 52.5532 43.1167 52.5714 42.9129 52.5607C42.822 52.5573 42.3003 52.6475 42.3026 52.6491C42.3026 52.6497 42.6546 52.5657 42.6796 52.5173C42.6912 52.4969 42.6998 52.4724 42.7046 52.4435C42.7702 52.2252 42.6559 52.0359 42.591 52.0173C42.523 51.9906 42.5044 52.098 42.6386 52.2461C43.0417 52.6973 44.4484 52.8692 45.9464 53.1522C46.1164 53.1639 46.2282 53.181 46.3684 53.2753C46.4402 53.3479 46.8118 54.3297 46.8453 54.3079C46.8914 54.2712 46.6953 53.5931 46.6499 53.4228C46.5892 53.222 46.5714 53.1539 46.3274 53.4177C45.8178 53.9373 45.6761 54.5695 45.669 54.7827C45.6551 55.0216 45.675 55.0022 45.5581 54.9472C45.4151 54.8685 44.7902 54.7302 44.3993 54.4976C44.4285 55.0688 44.5914 55.625 44.7929 56.0368C45.1556 56.817 45.9144 57.4085 46.2674 57.5764C46.6478 57.7729 46.7696 57.7805 46.8023 57.8999C46.8461 57.9441 46.8752 57.9917 46.8878 58.0464C46.9443 58.3084 46.8385 59.0676 47.0059 59.1963ZM40.9987 61.571C41.4642 60.4465 40.2852 61.1081 40.3879 61.8362C40.4172 62.0037 40.8823 61.8663 40.9987 61.571ZM56.1297 58.1596C56.465 58.2522 56.8004 58.3443 57.136 58.4358C57.0324 58.2772 56.9264 58.1221 56.8181 57.9705C56.599 57.9786 56.3802 57.9844 56.1617 57.9877C56.1514 58.0448 56.1408 58.1021 56.1297 58.1596Z" fill="#F4D553"/>
</svg>
