<svg width="49" height="345" viewBox="0 0 49 345" fill="none" xmlns="http://www.w3.org/2000/svg">
<path d="M35.3409 193.249C33.4126 200.863 41.9352 206.858 40.7306 216.139C39.5259 225.421 35.0051 226.811 36.0223 237.44C37.0393 248.069 33.9472 258.704 35.8046 263.437C37.6625 268.17 32.0454 268.669 33.293 275.39C34.5404 282.11 33.8072 286.183 31.9814 292.061C30.1555 297.939 28.5968 315.996 30.8397 322.563C33.0826 329.129 29.1909 336.618 28.2679 341.122C27.9804 342.525 27.5869 343.629 27.1775 344.476C27.004 344.834 26.6408 345 26.2824 345C26.2822 345 26.282 345 26.2817 345C25.8354 345 25.3966 344.743 25.3403 344.282C25.0665 342.045 24.3444 338.702 22.7259 334.752C19.7081 327.388 23.0429 326.583 21.4922 316.639C19.9415 306.695 16.8413 300.72 18.8461 289.019C20.8506 277.319 12.4616 274.631 17.2159 258.115C21.9698 241.599 13.1964 239.86 12.0297 223.402C10.8631 206.943 15.7039 186.166 15.3025 176.245C14.9011 166.323 13.8791 152.997 15.037 138.932C16.1948 124.867 13.272 107.504 15.3379 91.9777C17.4037 76.4521 20.0129 54.5021 21.7613 44.3614C23.5096 34.2212 23.904 31.7496 22.8357 21.9891C22.2216 16.3787 22.8004 8.64979 25.0588 2.12138C26.1954 -1.16414 27.7779 -0.419639 28.5351 2.88735C29.6423 7.72323 28.9027 11.693 30.8804 14.1847C34.833 19.1637 36.3493 21.2798 34.0487 27.5654C31.7485 33.8507 36.9763 36.8124 36.3746 40.4763C35.7726 44.1404 32.689 44.0801 35.0647 62.7104C37.4406 81.341 38.0468 91.5543 38.6172 98.6095C39.1875 105.665 36.5113 120.397 37.4773 131.895C38.4432 143.393 37.5579 166.769 39.1393 176.192C40.7206 185.615 37.2691 185.634 35.3409 193.249Z" fill="#3B5BDB"/>
<path d="M43.3355 183.054C41.3794 186.904 49.837 190.176 48.4491 194.958C47.0422 199.704 42.4973 200.162 43.1721 205.618C43.8347 211.111 40.2582 216.242 41.846 218.865C43.3434 221.377 38.412 221.16 38.5325 224.226L38.5121 224.361C38.5155 224.526 38.5346 224.702 38.5714 224.889C39.2627 228.412 38.2015 230.311 35.9136 232.901C33.6279 235.493 30.5666 244.089 32.239 247.676C32.9381 249.178 32.5654 250.577 31.804 251.85L31.8382 251.603C30.9053 253.285 29.1311 255.766 27.4351 257.043C26.538 257.77 25.5325 257.867 24.9076 257.678C24.6341 257.601 24.4363 257.278 24.3277 256.938C24.3276 256.938 24.3276 256.937 24.3275 256.937C24.1957 256.51 24.158 256.065 24.2732 255.952C24.9282 255.361 24.7139 254.172 23.317 252.407C22.8052 251.745 22.5084 251.15 22.3888 250.549L22.423 250.301C22.0365 248.054 24.0747 247.33 23.5157 243.207C22.8192 238.059 20.2734 234.608 23.2118 229.228C24.795 226.324 23.1752 224.204 22.2849 221.738L22.2561 221.928C21.4171 220.07 21.0834 217.823 23.6104 214.387C29.0538 206.804 20.3614 205.208 19.6173 197.312C18.866 189.407 23.7814 179.559 23.2208 174.83C22.8474 171.511 22.0745 167.44 21.7313 163.204C21.5799 161.365 21.5089 159.42 21.6042 157.382C21.873 151.769 19.2368 145.083 19.1614 138.108C19.1397 136.374 19.2841 134.777 19.621 133.21C21.3772 125.182 23.8296 114.234 25.5102 109.139C27.1949 104.059 27.577 102.829 26.4683 97.9663C25.8324 95.1854 26.3884 91.3016 28.6432 88.0521C29.7788 86.416 31.3609 86.7752 32.1201 88.4281C33.2312 90.8195 32.502 92.7966 34.4867 94.0324C38.4541 96.4806 39.9773 97.5096 37.7044 100.649C35.4331 103.786 40.678 105.205 40.098 107.023C39.5226 108.843 36.4196 108.866 38.9548 118.053C41.5029 127.216 42.2816 132.202 43.025 135.409C43.1036 135.722 43.1523 136.146 43.1711 136.504C43.3361 139.977 41.9634 146.228 43.457 151.201C44.1564 153.554 44.679 157.068 45.1363 160.815C45.7777 166.085 46.0647 171.346 47.0485 174.172C48.7387 179.091 45.2705 179.158 43.3355 183.054Z" fill="#3B5BDB"/>
<path d="M5.37247 147.809C7.32789 143.466 -1.15888 139.925 0.134923 134.594C1.43705 129.279 5.97056 128.566 5.1155 122.457C4.2647 116.326 7.601 110.285 5.89095 107.467C4.53339 105.149 7.81949 104.707 8.77055 102.445C9.01445 101.905 9.10869 101.254 8.94602 100.42C8.1545 96.2956 9.24857 93.9513 11.6011 90.8681C13.3762 88.5093 15.8068 82.2678 16.2722 77.6358L16.2672 77.6614C16.4037 76.1869 16.2959 74.965 15.8773 74.0792C15.4374 73.1459 15.3637 72.2685 15.5149 71.3841C15.952 68.7976 18.3729 66.0153 19.1275 64.141C19.4412 63.3554 19.854 62.7402 20.2783 62.2721C20.4582 62.0739 20.8241 61.9908 21.1823 62.002C21.1826 62.0021 21.1828 62.0021 21.183 62.0021C21.6291 62.0162 22.0631 62.176 22.1112 62.4398C22.3434 63.7241 23.0118 65.6331 24.5264 67.99C25.7283 69.872 25.7834 71.0613 25.5273 72.2598C25.1769 73.8573 24.2789 75.5371 24.5083 78.967C24.5155 79.0641 24.5235 79.1595 24.5319 79.2547L24.5248 79.2909C24.9983 84.9848 27.2382 88.7703 24.2947 94.6588C22.4353 98.454 24.997 100.897 25.7974 104.075C26.3198 105.581 26.2336 108.033 24.3173 111.361C19.1998 120.432 27.9535 121.759 28.9086 131.002C29.8725 140.261 24.9653 151.901 25.4 157.493C25.8244 163.073 26.9204 170.517 26.042 178.348C25.7542 180.94 25.9361 183.696 26.2809 186.487C26.9854 192.281 28.3632 198.317 27.6008 204.226C27.3864 205.878 27.1755 207.666 26.9691 209.524C26.0253 218.176 24.8635 226.384 24.936 230.735C24.9321 230.92 24.9297 231.099 24.9288 231.274C25.1339 237.352 24.9246 238.699 26.8051 244.058C27.8728 247.232 27.7616 251.877 25.6174 255.762C24.5125 257.712 22.9369 257.197 22.1289 255.44C20.9225 252.843 21.4487 250.57 19.3458 249.408C15.1232 247.101 13.514 246.321 15.2506 242.71C16.9362 239.015 11.4558 238.687 11.616 237.055C11.6538 236.55 11.9364 236.126 12.1893 235.601C12.612 233.661 12.5343 230.853 9.8046 223.062C8.15369 218.255 7.18369 214.632 6.34665 211.882C5.2388 207.98 4.60568 205.116 4.05825 202.828C3.2906 199.641 4.31424 193.477 4.20677 187.793C4.1757 186.256 4.05595 184.692 3.78383 183.273C2.46988 176.56 3.14196 163.03 1.5635 157.616C-0.0319605 152.182 3.42448 152.169 5.37247 147.809Z" fill="#3B5BDB"/>
</svg>
